<svg width="893" height="752" viewBox="0 0 893 752" fill="none" xmlns="http://www.w3.org/2000/svg">
<path d="M793.668 207.185C777.928 219.582 755.564 233.34 737.146 239.262L764.509 244.255L651.481 373.392L426.201 436.211L159.605 711.683L369.611 711.612L476.615 545.157L690.998 421.746L774.261 249.831L791.995 270.632C788.449 252.147 790.075 226.527 793.668 207.185Z" fill="#EC4962"/>
<path d="M120.721 498.958C120.721 498.958 108.511 477.752 105.54 473.244C102.569 468.739 94.831 450.826 94.5543 450.12C94.278 449.413 99.8836 440.938 98.6324 440.648C97.3809 440.355 95.9963 445.115 94.6614 444.547C93.3264 443.98 89.4268 432.519 88.6658 433.091C87.2423 434.151 90.7679 440.197 90.0092 440.577C89.2502 440.956 86.9517 433.929 85.4615 434.136C83.9713 434.343 88.2956 440.577 87.8788 441.129C87.462 441.678 82.9729 435.805 82.1606 437.057C81.7194 437.738 86.2881 442.186 85.4107 442.603C84.5333 443.021 80.4691 440.148 80.0387 440.975C79.6083 441.802 83.7975 442.938 85.0502 445.171C86.3024 447.405 88.4356 448.367 89.3216 452.503C90.2079 456.639 91.5316 471.6 96.0697 479.068C100.607 486.531 110.587 503.057 110.587 503.057L120.721 498.958Z" fill="#F79C8D"/>
<path d="M117.342 492.087C117.342 492.087 130.848 506.191 132.856 511.876C134.864 517.561 130.899 525.69 125.423 526.048C119.946 526.401 107.76 501.014 107.76 501.014L117.342 492.087Z" fill="#355389"/>
<path d="M180.96 594.198C179.978 593.401 178.789 593.762 175.377 592.231C174.716 591.934 172.978 591.464 172.2 591.314C172.054 591.284 171.938 591.179 171.9 591.039C170.863 587.234 166.32 569.656 165.821 564.588C165.311 559.403 161.86 537.426 161.334 534.083C161.298 533.857 161.065 533.711 160.837 533.775L150.923 536.452C150.72 536.508 150.596 536.707 150.643 536.907C151.255 539.524 155.066 555.974 156.185 564.298C157.077 570.935 167.281 592.224 167.485 593.585L167.491 593.623C167.553 594.032 167.915 594.337 168.342 594.337C170.86 594.337 178.93 594.333 179.39 594.337C179.81 594.341 181.268 594.446 180.96 594.198Z" fill="#F48C7F"/>
<path d="M158.886 524.598C153.611 509.091 147.712 509.753 147.712 509.753L152.274 542.349C155.532 541.487 159.773 539.566 163.027 538.675C161.948 533.772 160.186 528.414 158.886 524.598Z" fill="#13375B"/>
<path d="M157.248 484.281C155.633 474.084 146.112 466.752 136.154 471.7C133.914 472.809 130.882 475.069 129.335 476.994C125.153 482.194 124.084 488.616 119.764 493.666C121.35 494.831 123.269 496.053 125.555 497.23L128.244 493.756L127.319 498.091C134.004 501.189 143.445 503.746 156.359 503.675C157.981 496.591 158.109 489.718 157.248 484.281Z" fill="#F7CC7F"/>
<path d="M160.353 710.32C158.833 709.237 157.606 708.519 152.752 706.237C152.435 706.09 151.282 705.376 150.867 705.131C149.813 704.507 148.754 703.522 147.843 702.537C146.973 701.597 146.558 698.581 146.362 696.179C146.862 690.809 154.89 604.72 156.583 595.399C158.331 585.781 155.669 571.106 155.669 571.106L149.471 568.843L137.707 608.349L138.634 638.425C138.634 638.425 135.868 647.092 135.518 652.273C135.168 657.454 139.517 699.503 139.517 699.503H139.518C139.518 701.007 139.457 702.364 139.284 703.214C138.965 704.785 137.187 708.023 138.002 709.504C138.818 710.986 139.751 711.354 139.751 711.354L160.89 711.685C162.042 711.704 161.281 710.986 160.353 710.32Z" fill="#F48C7F"/>
<path d="M128.269 568.021C128.269 568.021 120.928 578.752 119.18 587.633C117.432 596.511 120.463 623.801 117.1 635.438C115.28 641.74 108.382 651.467 107.333 659.607C106.285 667.748 102.636 691.24 102.636 691.24H102.636C102.084 693.707 101.219 696.76 100.097 698.177C99.4097 699.046 98.1547 700.144 97.3308 701.712C96.0483 704.156 96.7572 707.792 97.7034 709.792C98.1888 710.819 97.6688 710.819 98.7748 711.149C102.049 712.131 105.532 710.476 106.926 707.431C107.705 705.731 108.388 703.46 108.525 700.603C108.671 697.572 109.16 695.162 109.682 693.383L133.147 637.611L150.134 589.48L154.486 564.69L128.269 568.021Z" fill="#F79C8D"/>
<path d="M107.561 705.826C102.482 706.728 99.1029 703.84 97.3446 701.682C96.0539 704.13 95.4241 707.781 96.3736 709.789C97.2099 711.56 99.6536 711.507 101.578 711.578C103.613 711.65 105.187 710.556 106.196 708.834C106.667 708.029 107.154 707.029 107.561 705.826Z" fill="#86B1F2"/>
<path d="M150.864 705.128C145.273 706.523 141.14 705.576 138.829 704.669C138.232 706.312 137.442 708.369 137.861 709.557C138.374 711.009 139.105 711.34 139.751 711.355C144.857 711.486 158.456 711.663 162.35 711.712C162.894 711.719 163.194 711.103 162.844 710.697C161.879 709.576 151.28 705.376 150.864 705.128Z" fill="#86B1F2"/>
<path d="M133.029 637.72C133.468 637.75 133.91 637.776 134.354 637.803L134.422 637.806C134.858 637.833 135.295 637.855 135.734 637.878L135.814 637.882C136.253 637.904 136.694 637.927 137.136 637.946H137.204C137.653 637.964 138.103 637.983 138.553 637.994C143.564 638.156 149.754 638.092 153.725 637.438C155.75 617.8 156.504 599.879 157.253 595.913C159.071 586.291 155.669 571.108 155.669 571.108L154.046 570.826L155.072 565.201L127.808 568.532C127.808 568.532 120.175 579.263 118.357 588.141C116.539 597.022 119.691 624.312 116.195 635.949C116.195 635.949 123.978 637.126 133.029 637.72Z" fill="#F7CC7F"/>
<path d="M134.21 506.969C134.21 506.969 124.49 506.368 120.645 510.44C116.8 514.508 129.175 546.705 129.874 551.886C130.574 557.064 126.31 570.84 126.31 570.84C126.31 570.84 149.143 575.3 155.668 571.107C155.668 571.107 156.367 533.857 155.668 530.157C154.969 526.457 149.143 511.41 147.744 509.928C146.346 508.451 134.21 506.969 134.21 506.969Z" fill="#355389"/>
<path d="M137.446 494.356C137.446 494.356 137.396 494.634 137.306 495.108C136.872 497.375 135.203 504.903 134.076 506.975C132.714 509.475 138.74 517.45 144.541 516.476C146.268 516.187 143.082 509.148 143.234 508.404C143.527 506.975 143.925 505.027 144.332 503.03C144.561 501.906 144.794 500.763 145.012 499.692C145.632 496.639 146.138 494.146 146.138 494.146L137.446 494.356Z" fill="#F7A491"/>
<path d="M137.306 495.11C137.397 494.636 137.447 494.358 137.447 494.358L146.139 494.147C146.139 494.147 145.633 496.64 145.012 499.693C144.795 500.757 144.565 501.893 144.336 503.013C142.994 502.822 141.592 502.19 140.186 500.994C138.653 499.689 137.649 498.125 137.043 496.452C137.15 495.922 137.239 495.459 137.306 495.11Z" fill="#F47458"/>
<path d="M143.296 475.171C143.296 475.171 139.2 474.712 136.631 477.938C134.063 481.164 131.295 491.136 137.675 496.561C144.054 501.983 150.358 495.843 151.292 489.335C152.227 482.826 152.59 474.938 143.296 475.171Z" fill="#F7A491"/>
<path d="M153.18 489.241C152.419 490.678 151.14 491.475 150.326 491.02C149.51 490.565 149.466 489.027 150.228 487.591C150.989 486.154 152.268 485.357 153.083 485.812C153.898 486.267 153.941 487.805 153.18 489.241Z" fill="#F7A491"/>
<path d="M143.754 474.107C143.754 474.107 138.281 483.59 134.366 484.03C130.45 484.466 129.936 489.508 129.936 489.508C129.936 489.508 131.336 477.894 135.212 475.653C139.089 473.416 143.754 474.107 143.754 474.107Z" fill="#F7CC7F"/>
<path d="M135.393 486.414C135.711 488.098 135.071 489.643 133.962 489.861C132.854 490.083 131.697 488.899 131.379 487.214C131.06 485.53 131.701 483.985 132.809 483.763C133.918 483.541 135.075 484.729 135.393 486.414Z" fill="#F7A491"/>
<path d="M140.216 492.53L146.139 493.658C146.139 493.658 145.56 495.812 142.94 495.387C139.746 494.872 140.216 492.53 140.216 492.53Z" fill="white"/>
<path d="M628.138 712.412L630.567 711.968L620.074 658.038L617.644 658.486L628.138 712.412Z" fill="#3C8F7C"/>
<path d="M515.798 712.655H512.879L523.765 658.037L526.19 658.484L515.798 712.655Z" fill="#3C8F7C"/>
<path d="M601.074 712.655H598.156L609.041 658.037L611.467 658.484L601.074 712.655Z" fill="#3C8F7C"/>
<path d="M542.415 712.655L544.786 712.685L534.347 658.281L531.922 658.729L542.415 712.655Z" fill="#184655"/>
<path d="M584.446 539.669C597.411 541.016 614.191 542.433 631.037 570.133C649.447 600.405 639.757 645.623 625.224 658.188C610.695 670.754 563.235 686.268 523.338 663.039C523.338 663.039 499.25 648.965 511.614 625.604C530.637 589.655 527.952 582.157 536.458 568.069C544.964 553.98 556.925 536.816 584.446 539.669Z" fill="#F47458"/>
<path d="M631.037 570.133C619.538 551.228 608.071 544.565 597.83 541.813C601.792 545.787 605.809 550.897 609.829 557.511C628.239 587.782 618.549 633 604.016 645.566C591.132 656.707 552.349 670.168 515.91 656.872C519.658 660.888 523.337 663.039 523.337 663.039C563.234 686.268 610.694 670.754 625.224 658.188C639.757 645.623 649.447 600.405 631.037 570.133Z" fill="#B75742"/>
<path d="M542.818 585.679L539.484 595.369L549.644 591.496L542.818 585.679Z" fill="#F79C8D"/>
<path d="M553.287 556.851C552.612 556.881 550.757 557.479 548.041 562.431C544.579 568.755 539.515 587.856 539.515 587.856L554.63 593.289L556.57 589.304L559.768 558.611C559.768 558.611 553.478 556.844 553.287 556.851Z" fill="#6394DB"/>
<path d="M573.269 554.1C568.946 554.108 558.251 555.326 553.288 556.856C553.288 556.856 549.644 587.12 556.571 610.116C558.123 615.264 555.29 631.458 555.29 631.458L600.077 630.887C600.077 630.887 594.772 591.741 596.771 585.417C598.769 579.096 598.82 557.059 598.82 557.059C598.82 557.059 598.509 557.014 588.753 555.386C584.205 554.626 577.884 554.096 573.269 554.1Z" fill="#86B1F2"/>
<path d="M578.489 687.628C578.489 687.628 577.499 698.671 575.675 701.732C573.855 704.789 575.772 709.989 575.869 710.703C575.962 711.414 579.703 712.437 585.648 711.824C591.594 711.211 591.497 709.887 591.019 707.744C590.538 705.605 587.375 702.853 587.181 700.815C586.991 698.777 589.005 691.437 589.005 691.437L578.489 687.628Z" fill="#F7A491"/>
<path d="M560.342 622.344C560.342 622.344 529.421 620.686 522.517 624.724C515.614 628.759 523.767 637.054 523.767 637.054C523.767 637.054 548.937 647.619 591.077 649.969C601.058 650.526 601.916 624.845 600.053 622.717C598.186 620.592 560.342 622.344 560.342 622.344Z" fill="#E5B05C"/>
<path d="M586.389 712.68C592.513 712.048 591.752 709.146 591.259 706.942C590.953 705.562 589.195 703.934 588.147 702.397C587.6 702.818 586.711 703.558 584.053 704.318C581.29 705.104 577.506 703.547 575.096 702.57C574.235 705.66 574.196 709.597 574.278 710.195C574.375 710.932 580.269 713.308 586.389 712.68Z" fill="#F47458"/>
<path d="M583.01 643.7C581.776 652.728 575.66 697.66 575.66 697.66L589.851 699.36C589.851 699.36 607.303 640.711 606.406 631.74C605.514 622.768 598.979 622.016 598.979 622.016C598.979 622.016 586.281 619.809 583.01 643.7Z" fill="#F7CC7F"/>
<path d="M599.305 560.424C595.117 558.905 593.068 595.344 592.506 610.338C585.09 611.027 572.163 610.342 568.942 610.109C567.429 610 563.94 608.767 562.435 608.575C560.89 608.38 559.493 608.278 558.736 608.406C558.457 608.455 550.727 611.508 550.067 612.177C549.244 613.004 547.028 615.099 547.401 616.005C547.777 616.911 551.666 613.482 551.666 613.482L553.567 612.452C551.2 614.685 546.687 617.625 547.335 618.697C547.971 619.738 552.042 616.757 554.945 614.723C552.457 616.892 549.365 620.776 550.075 621.385C550.715 621.927 554.235 617.43 557.991 616.136C559.384 615.655 560.774 616.986 561.868 617.144C562.675 617.264 563.917 617.513 564.709 617.298L568.779 616.182C570.165 616.306 570.2 617.095 571.601 617.385C573.227 617.719 575.893 618.069 577.961 618.558C589.882 621.37 593.856 622.675 597.508 622.675C608.56 622.668 609.204 564.008 599.305 560.424Z" fill="#F7A491"/>
<path d="M607.252 594.63C608.036 579.27 607.923 560.335 599.006 557.105C595.486 555.83 589.281 563.493 590.398 594.942C595.16 595.322 602.149 595.626 607.252 594.63Z" fill="#86B1F2"/>
<path d="M536.988 697.078C536.988 697.078 538.226 700.909 536.011 703.447C533.795 705.982 524.582 708.467 523.371 709.843C522.161 711.216 522.254 712.385 522.254 712.385L548.11 711.697L547.831 704.154L546.64 698.736L536.988 697.078Z" fill="#F7A491"/>
<path d="M534.404 704.712C534.404 704.712 541.048 707.306 544.257 705.768C547.467 704.234 547.37 703.809 548.297 704.381C549.229 704.952 549.558 712.656 549.558 712.656L520.481 712.848C518.459 712.803 517.434 711.363 519.08 710.133C520.205 709.287 521.509 708.723 522.25 708.31C524.524 707.054 534.404 704.712 534.404 704.712Z" fill="#F47458"/>
<path d="M537.97 629.42C535.972 625.359 531.428 620.068 523.43 623.253C515.8 626.291 513.751 633.759 516.157 641.403C518.567 649.047 534.412 693.986 534.963 700.164L547.614 700.243C547.614 700.243 545.313 664.662 544.75 656.059C544.207 647.783 541.428 636.447 537.97 629.42Z" fill="#F7CC7F"/>
<path d="M517.435 588.029H559.723C560.84 588.029 561.849 588.684 562.272 589.688L575.296 620.456H598.607C599.259 620.456 599.79 620.967 599.79 621.599C599.79 622.23 599.259 622.742 598.607 622.742H532.255C530.431 622.742 528.778 621.704 528.029 620.091L514.917 591.793C514.098 590.026 515.433 588.029 517.435 588.029Z" fill="#355389"/>
<path d="M540.202 605.947C540.486 607.331 541.731 608.256 542.981 608.011C544.23 607.77 545.01 606.454 544.727 605.071C544.44 603.687 543.194 602.766 541.945 603.007C540.695 603.247 539.915 604.567 540.202 605.947Z" fill="white"/>
<path d="M578.407 541.128L580.479 554.341C580.479 554.341 572.92 570.073 568.41 568.708C564.627 567.565 566.955 553.645 566.955 553.645C566.955 553.645 569.016 546.167 568.399 542.426C567.782 538.684 578.407 541.128 578.407 541.128Z" fill="#F7A491"/>
<path d="M568.135 548.14H578.581V541.127H568.135V548.14Z" fill="#F47458"/>
<path d="M568.135 548.14C568.278 547.241 568.395 546.316 568.461 545.429C568.461 545.425 568.461 545.425 568.461 545.425C568.461 545.41 568.461 545.395 568.465 545.38C568.465 545.376 568.465 545.372 568.465 545.369C568.465 545.361 568.465 545.353 568.465 545.346C568.465 545.342 568.468 545.335 568.468 545.331C568.468 545.327 568.468 545.323 568.468 545.32C568.468 545.316 568.468 545.308 568.468 545.305C568.468 545.301 568.468 545.297 568.468 545.293C568.468 545.286 568.468 545.282 568.472 545.275C568.472 545.271 568.472 545.271 568.472 545.271C568.538 544.244 568.534 543.274 568.406 542.473C568.406 542.47 568.406 542.47 568.406 542.47C568.402 542.462 568.402 542.455 568.402 542.451V542.447C568.399 542.439 568.399 542.432 568.399 542.424C568.379 542.319 568.371 542.214 568.371 542.116C568.375 540.744 570.122 540.345 572.155 540.345C575 540.345 578.407 541.127 578.407 541.127L578.581 542.221C578.267 542.955 577.887 543.583 577.429 544.064C575.054 546.538 571.344 548.027 568.135 548.14Z" fill="#F69A86"/>
<path d="M580.154 522.435C580.453 522.33 582.56 537.486 578.563 541.656C574.562 545.826 566.769 547.191 563.975 543.904C560.882 540.272 561.038 523.984 567.258 519.694C573.475 515.404 580.154 522.435 580.154 522.435Z" fill="#F7A491"/>
<path d="M569.625 511.586C574.429 512.537 577.542 515.384 578.686 516.594C580.867 516.846 583.836 518.012 586.898 522.926C590.666 528.968 587.884 535.661 583.498 538.947C579.113 542.23 579.175 546.024 579.175 546.024L578.481 544.061C577.972 542.576 577.763 541 577.934 539.44C578.035 538.504 578.244 537.492 578.644 536.661C579.695 534.469 576.377 533.01 575.446 531.187C574.728 529.781 574.693 526.566 573.568 524.246L572.217 522.471C572.217 522.471 569.105 520.125 566.063 520.787C563.02 521.448 563.455 510.368 569.625 511.586Z" fill="#F7CC7F"/>
<path d="M575.653 533.883C575.622 535.733 576.487 537.245 577.589 537.263C578.691 537.282 579.611 535.797 579.642 533.951C579.673 532.101 578.808 530.586 577.705 530.567C576.603 530.552 575.684 532.033 575.653 533.883Z" fill="#F7A491"/>
<path d="M570.25 539.008L564.224 538.708C564.224 538.708 564.243 540.934 566.89 541.14C570.118 541.392 570.25 539.008 570.25 539.008Z" fill="white"/>
<path d="M690.35 465.346C691.005 467.966 692.193 472.102 692.193 472.102C692.1 473.242 691.75 477.975 691.339 483.777L700.144 480.363C700.144 480.363 700.036 470.91 700.431 470.331C700.761 469.843 701.32 470.452 704.017 466.71C704.797 465.631 704.945 463.702 704.945 463.702C704.945 463.702 705.104 461.326 704.553 461.104C704.002 460.882 703.373 461.24 703.171 461.649C702.973 462.059 703.024 463.014 702.826 463.424C702.624 463.838 701.351 464.33 700.816 464.304C700.28 464.282 700.882 457.28 700.882 457.28C700.882 457.28 701.184 455.295 701.336 454.645C701.464 454.092 701.984 452.468 701.984 452.468C701.984 452.468 702.593 450.114 701.84 449.933C701.394 449.828 700.261 451.742 699.485 453.772C698.646 455.961 698.173 458.281 697.932 458.247C697.37 458.175 697.668 454.336 697.668 454.336C697.668 454.336 698.227 452.58 698.216 451.749C698.743 450.734 699.093 448.847 698.161 448.693C697.991 448.662 696.764 451.058 696.764 451.058C696.764 451.058 696.279 452.746 696 453.532C695.503 454.923 695.429 457.119 695.169 458.085C694.956 458.893 694.762 458.563 694.673 458.596C694.603 458.619 694.723 457.51 694.859 455.983C694.929 455.212 694.839 454.329 695.061 453.453C695.266 452.641 695.383 451.479 695.437 450.779C695.588 448.794 694.296 448.997 693.85 450.813C693.683 451.501 693.504 452.257 693.326 453.024C692.631 455.998 692.651 458.863 692.321 458.89C691.89 458.92 692.173 453.701 692.173 453.701C692.173 453.701 691.514 450.809 690.858 453.49C690.097 456.604 690.179 459.142 690.19 459.254C690.256 460.014 689.69 462.729 690.35 465.346Z" fill="#F8A492"/>
<path d="M783.783 458.448C783.123 461.065 781.939 465.205 781.939 465.205C782.033 466.34 782.378 471.074 782.793 476.879L773.988 473.465C773.988 473.465 774.093 464.009 773.701 463.43C773.367 462.941 772.812 463.554 770.111 459.813C769.335 458.73 769.188 456.801 769.188 456.801C769.188 456.801 769.029 454.428 769.58 454.207C770.127 453.985 770.759 454.338 770.957 454.748C771.159 455.162 771.105 456.117 771.306 456.527C771.504 456.936 772.777 457.433 773.317 457.406C773.852 457.38 773.247 450.379 773.247 450.379C773.247 450.379 772.948 448.397 772.797 447.747C772.669 447.194 772.149 445.57 772.149 445.57C772.149 445.57 771.535 443.212 772.292 443.032C772.735 442.927 773.872 444.84 774.648 446.871C775.486 449.059 775.959 451.379 776.2 451.349C776.763 451.274 776.464 447.439 776.464 447.439C776.464 447.439 775.901 445.679 775.917 444.852C775.389 443.833 775.036 441.949 775.967 441.791C776.142 441.765 777.368 444.16 777.368 444.16C777.368 444.16 777.849 445.844 778.133 446.634C778.625 448.025 778.703 450.217 778.959 451.187C779.176 451.992 779.371 451.661 779.46 451.695C779.53 451.721 779.409 450.612 779.27 449.085C779.204 448.315 779.293 447.427 779.072 446.551C778.866 445.739 778.746 444.581 778.695 443.878C778.544 441.893 779.832 442.096 780.279 443.912C780.449 444.604 780.628 445.356 780.806 446.123C781.497 449.097 781.478 451.966 781.811 451.988C782.238 452.018 781.955 446.799 781.955 446.799C781.955 446.799 782.615 443.912 783.271 446.593C784.031 449.702 783.954 452.24 783.942 452.353C783.872 453.112 784.439 455.827 783.783 458.448Z" fill="#F8A492"/>
<path d="M759.704 680.921C759.704 680.921 764.586 686.786 765.801 687.508C767.016 688.23 765.258 696.746 761.947 697.307C760.081 697.622 759.041 695.63 759.041 695.63L759.576 693.178L752.603 686.215L759.704 680.921Z" fill="#F7A491"/>
<path d="M734.556 682.373C734.556 682.373 738.627 688.791 739.737 689.656C740.847 690.524 737.979 698.755 734.622 698.898C732.729 698.98 731.96 696.879 731.96 696.879L732.818 694.51L726.818 686.742L734.556 682.373Z" fill="#F7A491"/>
<path d="M739.494 689.402C739.494 689.402 737.158 692.29 735.881 693.441C734.236 694.922 732.128 696.373 732.128 696.373C732.128 696.373 729.742 700.57 729.09 702.036C727.635 705.296 726.005 708.932 726.241 710.755C726.315 711.342 727.673 711.962 728.807 711.628C733.522 710.222 745.575 699.536 747.1 696.667C748.854 693.362 739.494 689.402 739.494 689.402Z" fill="#13375B"/>
<path d="M705.082 591.628C705.521 590.44 705.94 589.342 706.344 588.308C711.361 589.368 717.023 590.534 722.852 591.737L723.562 612.432C723.558 610.834 719.181 645.433 719.181 645.433C719.181 645.433 730.501 669.723 738.247 683.876C735.068 687.718 733.574 688.959 728.976 691.576C716.953 677.615 701.221 652.066 700.569 647.817C700.193 645.373 699.855 605.874 705.082 591.628Z" fill="#3C8F7C"/>
<path d="M749.838 597.612C748.306 613.738 744.902 644.559 745.185 647.041C746.039 650.131 761.193 678.655 763.921 682.806C761.756 685.968 758.403 689.382 754.798 690.326C754.088 690.514 729.081 656.031 727.715 653.297C726.174 650.203 723.605 633.324 723.562 612.434L722.852 591.738C732.558 593.746 741.483 595.713 749.838 597.612Z" fill="#50BFA5"/>
<path d="M717.96 524.115L729.389 525.634C729.389 525.634 738.532 525.796 739.665 525.796C740.798 525.796 747.993 566.242 750.073 581.44C752.149 596.642 750.538 599.33 750.538 599.33C750.538 599.33 736.052 602.489 725.333 601.568C714.184 600.613 701.646 594.781 701.646 594.781C701.646 594.781 711.173 565.573 713.063 556.451C714.949 547.333 717.96 524.115 717.96 524.115Z" fill="#355389"/>
<path d="M690.252 475.187C690.252 475.187 689.518 505.301 690.69 507.602C692.398 510.952 711.584 534.712 711.584 534.712C711.584 534.712 702.417 571.879 698.564 584.712C698.176 586.006 696.457 594.353 696.457 595.169C696.457 596.974 704.567 599.263 705.53 599.128C706.391 599.004 713.466 563.652 717.983 546.353C719.512 540.491 722.139 534.952 725.732 530.004L728.872 525.68L704.765 502.27C704.765 502.27 701.797 476.214 701.797 474.055C701.797 473.488 691.424 473.063 690.252 475.187Z" fill="#86B1F2"/>
<path d="M739.269 525.8L769.328 496.122C769.328 496.122 773.515 468.058 773.814 467.001C774.105 465.963 781.572 465.403 784.579 465.117C785.545 465.027 784.075 495.009 782.635 500.033C780.935 505.97 758.214 533.023 758.214 533.023C758.214 533.023 754.143 547.672 755.125 558.418C756.751 576.27 761.144 600.823 760.356 601.594C755.47 604.576 736.723 604.895 735.536 603.042C722.431 582.595 739.269 525.8 739.269 525.8Z" fill="#86B1F2"/>
<path d="M765.525 687.285C765.525 687.285 763.588 690.44 762.475 691.737C761.039 693.41 759.137 695.11 759.137 695.11C759.137 695.11 757.325 699.569 756.871 701.103C755.862 704.517 754.717 708.638 755.195 710.421C755.346 710.992 756.642 712.083 757.713 711.41C761.85 708.8 772.894 696.584 774.027 693.55C775.331 690.053 765.525 687.285 765.525 687.285Z" fill="#13375B"/>
<path d="M730.23 487.132C731.51 487.177 732.787 487.166 734.064 487.057C735.503 486.933 737.343 486.847 738.398 487.061C740.622 487.516 744.149 489.042 745.325 491.866C746.792 495.385 752.035 494.859 745.822 508.2C738.794 523.3 730.575 518.355 730.462 518.017C730.35 517.675 726.399 505.225 726.399 505.225C726.399 505.225 721.486 509.948 721.568 509.737C721.646 509.534 714.874 486.595 730.23 487.132Z" fill="#0E2E35"/>
<path d="M729.544 520.151L728.725 526.058C728.725 526.058 726.889 534.571 729.249 536.21C731.608 537.853 739.288 525.817 739.288 525.817L738.477 510.845L729.544 520.151Z" fill="#F7A491"/>
<path d="M738.736 515.698C736.788 520.804 732.142 523.94 728.848 525.158L729.542 520.15L738.476 510.844L738.736 515.698Z" fill="#F47458"/>
<path d="M735.806 493.919C731.409 491.475 725.794 493.585 724.14 498.168C723.422 500.161 722.631 502.684 722.022 505.492C720.551 512.245 722.856 519.506 726.023 520.089C729.189 520.675 738.805 517.904 741.029 508.343C742.399 502.439 740.416 496.48 735.806 493.919Z" fill="#F7A491"/>
<path d="M738.546 508.673C738.251 510.166 739.031 511.568 740.288 511.801C741.546 512.03 742.803 511.008 743.098 509.511C743.397 508.019 742.617 506.62 741.359 506.387C740.102 506.154 738.841 507.176 738.546 508.673Z" fill="#F7A491"/>
<path d="M741.359 506.385C741.359 506.385 737.428 505.938 736.967 503.212C736.509 500.486 733.621 493.91 726.784 493.699C719.946 493.485 734.013 490.777 734.498 490.954C734.983 491.135 740.812 493.221 740.812 493.221C740.812 493.221 743.905 498.433 743.913 498.884C743.921 499.339 743.548 504.092 743.548 504.092L741.359 506.385Z" fill="#0E2E35"/>
<path d="M731.149 513.319L724.141 512.142C724.141 512.142 723.834 514.755 726.9 515.361C730.641 516.098 731.149 513.319 731.149 513.319Z" fill="white"/>
<path d="M376.948 540.958C377.212 541.842 377.364 542.135 377.7 542.726C379.867 546.549 384.895 552.001 384.895 552.001L388.783 543.511C388.783 543.511 388.151 540.846 387.05 537.037C383.294 537.984 379.716 538.537 376.948 540.958Z" fill="#F8A492"/>
<path d="M399.245 533.595C399.245 533.595 377.554 542.645 376.852 542.473C376.4 542.36 367.954 528.662 367.864 515.78C367.822 509.832 374.199 502.673 381.314 504.09C384.896 504.801 384.84 505.767 390.141 513.231C395.438 520.691 399.245 533.595 399.245 533.595Z" fill="#13375B"/>
<path d="M417.764 695.876L417.248 704.148C417.057 705.197 416.312 707.784 416.312 708.739C416.312 712.319 433.853 705.701 429.922 704.114C429.569 703.971 427.702 702.885 427.586 701.666C427.407 699.79 426.949 695.993 426.949 695.993L417.764 695.876Z" fill="#F7A491"/>
<path d="M429.879 704.079C429.879 704.079 425.762 705.173 423.651 705.448C421.544 705.722 418.761 703.418 417.271 704.038C415.626 704.722 415.692 710.892 415.692 710.892C415.692 710.892 437.776 712.648 443.985 710.832C446.446 710.11 438.3 706.629 429.879 704.079Z" fill="#DD513A"/>
<path d="M381.881 695.876L381.363 704.148C381.174 705.197 380.429 707.784 380.429 708.739C380.429 712.319 397.969 705.701 394.038 704.114C393.684 703.971 391.267 702.072 391.15 700.854C390.968 698.978 391.065 695.993 391.065 695.993L381.881 695.876Z" fill="#F7A491"/>
<path d="M393.994 704.081C393.994 704.081 389.877 705.175 387.767 705.449C385.658 705.724 382.877 703.419 381.385 704.039C379.743 704.723 379.678 710.894 379.678 710.894C379.678 710.894 401.864 712.939 408.104 710.833C410.526 710.014 402.415 706.63 393.994 704.081Z" fill="#DD513A"/>
<path d="M387.242 545.535L402.691 524.566C402.757 524.382 402.897 524.006 403.11 523.43C403.89 521.351 405.509 517.023 406.917 512.714L406.933 512.669C407.375 511.161 408.314 508.537 409.226 505.995C410.235 503.171 411.489 499.667 411.531 499.069C411.493 498.968 411.419 498.783 411.322 498.539C410.755 497.114 409.991 493.723 409.719 492.249C409.548 491.309 409.374 489.022 410.526 489.022C412.339 489.022 411.477 491.305 412.311 492.73C412.618 491.775 413.239 489.887 413.569 487.977L413.871 483.518C413.93 483.183 413.561 480.724 414.83 480.724H414.892C416.033 480.807 416.01 483.42 416.483 487.842C416.634 487.334 416.782 486.721 416.894 486.157C416.883 485.853 417.112 484.526 417.282 483.822C417.054 482.589 417.185 480.645 418.54 480.829C419.219 480.923 419.165 483.634 419.165 483.634C419.157 484.007 419.118 486.876 419.137 487.44C419.277 486.481 419.82 482.375 420.884 482.375C421.765 482.375 421.834 483.48 421.815 484.353C421.803 484.871 421.252 489.316 421.221 489.835C421.637 489.162 422.129 485.24 422.537 485.24C424.256 485.24 423.635 490.812 423.006 492.264C422.944 492.414 422.882 492.704 422.809 493.042C422.595 494.035 422.234 495.697 421.338 497.185C420.259 498.975 418.769 501.818 418.544 502.254C418.377 503.141 417.857 506.337 417.209 510.353C416.929 512.075 416.627 513.959 416.308 515.91H416.289C416.231 516.331 415.909 517.674 414.686 522.716C413.014 529.615 412.843 529.912 412.769 530.04C412.044 531.285 395.384 553.206 394.674 554.134L394.259 554.687L387.242 545.535Z" fill="#F7A491"/>
<path d="M415.979 496.629C415.979 496.629 414.726 493.519 412.491 493.516C412.491 493.516 413.74 493.08 414.807 493.899C415.879 494.719 415.979 496.629 415.979 496.629Z" fill="#F47458"/>
<path d="M383.509 490.625L381.521 502.811C381.521 502.811 389.098 508.707 393.518 507.462C397.224 506.421 394.682 501.725 394.682 501.725C394.682 501.725 392.707 495.22 393.312 491.809C393.917 488.399 383.509 490.625 383.509 490.625Z" fill="#F7A491"/>
<path d="M384.937 494.31C386.836 495.178 390.591 496.363 393.514 496.652C393.234 494.945 393.075 493.141 393.312 491.809C393.591 490.234 391.523 489.862 389.218 489.918C386.2 490.166 383.509 490.625 383.509 490.625L383.127 492.968C383.701 493.554 384.304 494.02 384.937 494.31Z" fill="#FE875E"/>
<path d="M373.946 476.565C373.633 476.569 376.942 490.18 382.061 492.522C387.181 494.865 394.818 493.643 396.25 489.977C397.833 485.924 392.055 472.034 384.853 470.267C377.652 468.503 373.946 476.565 373.946 476.565Z" fill="#F7A491"/>
<path d="M379.871 464.061C375.781 466.343 373.905 469.735 373.273 471.122C371.354 472.006 369.031 473.912 367.916 479.056C366.545 485.38 371.419 490.257 376.586 491.723C381.753 493.19 382.551 496.502 382.551 496.502L383.137 492.938C383.137 492.938 381.987 489.832 380.259 488.279C378.531 486.726 381.078 484.463 381.302 482.613C381.474 481.192 380.394 478.432 380.628 476.097C380.628 476.097 383.499 471.882 386.329 470.84C391.155 469.066 385.118 461.128 379.871 464.061Z" fill="#13375B"/>
<path d="M382.046 484.985C382.715 486.557 382.442 488.117 381.435 488.47C380.429 488.824 379.07 487.835 378.401 486.263C377.732 484.692 378.005 483.131 379.012 482.778C380.018 482.424 381.377 483.413 382.046 484.985Z" fill="#F7A491"/>
<path d="M401.116 545.874L430.919 541.166C430.919 541.166 427.528 532.894 426.317 532.894C425.106 532.894 403.782 541.911 403.782 541.911L402.086 545.212L401.116 545.874Z" fill="#F8A492"/>
<path d="M385.854 565.668C385.854 565.668 382.881 579.592 384.093 590.15C385.304 600.708 385.399 638.217 385.399 638.217L380.776 698.227L391.745 698.46C391.745 698.46 404.753 638.477 404.512 640.015C404.268 641.556 408.87 597.782 408.87 597.782L393.363 564.349L385.854 565.668Z" fill="#184655"/>
<path d="M388.759 565.006C388.759 565.006 386.821 577.546 389.244 583.043C391.666 588.544 410.025 642.5 410.269 646.899C410.51 651.298 416.614 699.927 416.614 699.927L429.37 699.577L432.129 645.516L426.351 577.569L420.743 560.389L388.759 565.006Z" fill="#13375B"/>
<path d="M381.521 502.81C381.521 502.81 384.666 504.81 387.599 504.577C390.533 504.348 394.682 501.723 394.682 501.723L394.104 499.832C394.104 499.832 386.515 498.76 386.324 498.873C386.133 498.99 381.521 502.81 381.521 502.81Z" fill="#F7A491"/>
<path d="M415.044 532.484C415.044 532.484 426.317 542.79 431.405 541.034C436.492 539.271 438.6 533.259 426.181 524.456C415.071 516.579 415.044 532.484 415.044 532.484Z" fill="#F8A492"/>
<path d="M422.68 545.213C421.008 536.384 408.869 508.917 407.903 503.86C407.429 501.397 400.883 501.345 394.65 501.664C388.062 502.003 381.52 502.811 381.52 502.811C381.52 502.811 375.689 503.74 373.124 506.067C370.559 508.399 369.878 514.839 373.565 527.063C376.476 536.715 380.085 542.017 381.871 549.044C382.233 551.405 382.542 553.729 382.953 556.448C383.609 566.961 382.945 580.846 382.945 580.846C382.945 580.846 414.686 587.227 426.557 577.549C426.557 577.549 424.395 554.256 422.68 545.213Z" fill="#355389"/>
<path d="M430.775 526.23C430.775 526.23 418.318 536.191 417.592 536.191C417.123 536.191 399.819 523.858 395.826 513.725C393.618 508.122 398.247 501.858 403.541 501.877C407.208 501.892 408.838 502.806 416.106 508.746C423.375 514.683 430.775 526.23 430.775 526.23Z" fill="#466EB6"/>
<path d="M449.492 301.02C441.657 315.139 423.488 320.433 408.912 312.838C394.34 305.246 388.876 287.642 396.715 273.519C404.55 259.4 422.72 254.106 437.295 261.702C451.867 269.293 457.331 286.897 449.492 301.02ZM482.074 306.558C479.028 304.566 475.912 302.678 472.908 300.629C472.357 300.253 471.876 299.298 471.934 298.659C472.33 294.553 472.97 290.469 473.335 286.36C473.444 285.164 473.723 284.536 474.907 284.089C479.074 282.509 483.203 280.821 487.344 279.167C488.015 278.9 488.675 278.61 489.835 278.121C487.856 271.966 485.9 265.875 483.898 259.634C478.566 260.66 473.704 261.514 468.888 262.563C467.188 262.931 466.264 262.739 465.17 261.217C462.935 258.096 460.253 255.283 457.847 252.275C457.479 251.813 457.319 250.88 457.533 250.346C459.171 246.237 460.804 242.123 462.694 238.123C463.602 236.205 463.148 235.171 461.375 234.28C460.692 233.934 460.137 233.355 459.524 232.881C456.462 231.283 453.4 229.689 450.334 228.095C449.95 228.019 449.543 228.004 449.186 227.862C445.449 226.38 446.167 226.41 444.044 229.433C441.459 233.114 438.937 236.84 436.725 240.059C430.997 239.54 425.649 239.055 420.123 238.555C418.032 233.633 415.843 228.493 413.647 223.319C406.902 224.199 400.705 226.256 394.624 229.05C395.675 234.129 396.688 239.081 397.736 244.03C397.926 244.917 397.868 245.455 396.971 246.105C393.456 248.654 390.002 251.29 386.675 254.065C385.716 254.866 385.099 254.87 384.069 254.449C379.818 252.719 375.525 251.08 371.266 249.365C370.208 248.94 369.523 248.97 368.739 249.974C365.225 254.471 362.828 259.502 360.862 264.766C360.473 265.807 360.99 266.259 361.802 266.77C365.559 269.135 369.256 271.59 373.029 273.929C374.116 274.602 374.448 275.185 374.231 276.546C373.48 281.246 373.012 285.991 372.39 291.101C367.775 292.943 362.537 295.034 357.302 297.125C358.198 303.783 360.04 309.946 363.085 315.819C368.799 314.68 374.357 313.574 379.392 312.574C382.532 316.079 385.364 319.414 388.407 322.553C389.556 323.742 389.761 324.636 389.09 326.103C387.297 330.009 385.662 333.984 384.006 337.947C383.679 338.729 383.034 339.639 384.296 340.286C389.431 342.914 394.562 345.542 399.692 348.167C400.786 348.727 401.473 348.37 402.133 347.373C404.589 343.67 407.216 340.064 409.607 336.323C410.53 334.879 411.524 334.822 413.068 335.025C416.891 335.522 420.74 335.946 424.59 336.033C426.247 336.071 426.856 336.488 427.415 337.917C429.216 342.508 431.199 347.031 433.073 351.487C437.183 351.487 448.378 348.088 452.414 345.655C451.359 340.771 450.342 335.815 449.186 330.893C448.895 329.664 449.271 329.133 450.245 328.393C453.381 326.001 456.342 323.396 459.454 320.974C459.978 320.568 461.041 320.343 461.639 320.568C465.434 322.008 469.179 323.576 472.924 325.144C475.015 326.024 475.857 326.385 476.661 325.862L485.427 310.063C485.45 308.777 484.538 308.171 482.074 306.558Z" fill="#9BA0C6"/>
<path d="M290.836 395.532C295.208 416.708 281.033 437.313 259.175 441.547C237.318 445.785 216.054 432.049 211.682 410.873C207.31 389.693 221.486 369.092 243.343 364.854C265.201 360.62 286.464 374.352 290.836 395.532ZM329.572 374.19C324.645 374.653 319.734 375.288 314.8 375.657C313.899 375.724 312.548 375.134 312.047 374.42C308.82 369.829 305.864 365.057 302.605 360.485C301.657 359.158 301.392 358.274 302.224 356.823C305.155 351.717 307.943 346.532 310.779 341.373C311.239 340.535 311.668 339.685 312.439 338.215C304.931 333.466 297.508 328.77 289.897 323.957C285.27 329.454 280.982 334.383 276.908 339.478C275.472 341.275 274.342 341.847 271.855 341.17C266.773 339.79 261.496 339.098 256.333 337.978C255.542 337.805 254.552 336.97 254.298 336.233C252.361 330.608 250.41 324.979 248.83 319.253C248.072 316.508 246.688 315.813 244.054 316.362C243.042 316.572 241.951 316.429 240.896 316.448C236.302 317.335 231.708 318.227 227.115 319.118C226.649 319.362 226.21 319.685 225.714 319.836C220.522 321.404 221.296 320.836 221.77 325.739C222.347 331.714 223.028 337.677 223.58 342.858C217.177 347.081 211.192 351.029 205.012 355.105C198.482 351.736 191.659 348.216 184.792 344.671C178.569 351.19 173.956 358.481 170.119 366.437C175.709 370.836 181.148 375.142 186.619 379.402C187.601 380.169 188.019 380.774 187.663 382.195C186.27 387.764 185.021 393.378 184.026 399.021C183.739 400.649 183.102 401.168 181.661 401.589C175.713 403.323 169.806 405.195 163.865 406.955C162.388 407.395 161.705 407.997 161.78 409.689C162.114 417.28 164.083 424.495 166.704 431.594C167.222 433 168.159 433.038 169.455 432.895C175.45 432.226 181.463 431.7 187.452 430.993C189.178 430.79 190.038 431.117 191.018 432.707C194.404 438.216 198.121 443.532 202.002 449.353C198.841 455.106 195.255 461.629 191.671 468.153C198.499 474.319 205.87 479.185 214.235 482.753C219.16 476.82 223.95 471.048 228.289 465.822C234.656 466.852 240.548 467.957 246.49 468.687C248.735 468.965 249.74 469.724 250.341 471.807C251.941 477.35 253.764 482.836 255.556 488.329C255.91 489.412 256.048 490.897 257.93 490.517C265.585 488.976 273.242 487.442 280.897 485.896C282.524 485.569 282.924 484.625 282.727 483.042C281.996 477.15 281.531 471.228 280.698 465.352C280.377 463.084 281.358 462.204 283.143 461.125C287.551 458.467 291.926 455.707 295.997 452.594C297.751 451.252 298.753 451.184 300.6 452.199C306.534 455.47 312.601 458.516 318.492 461.584C322.758 458.166 331.372 445.326 333.41 439.449C327.983 435.253 322.541 430.955 316.979 426.808C315.588 425.77 315.511 424.905 315.864 423.33C317.002 418.239 317.77 413.073 318.855 407.966C319.038 407.109 319.943 405.992 320.764 405.729C325.981 404.067 331.259 402.582 336.534 401.097C339.484 400.266 340.677 399.943 341.049 398.732L336.158 375.04C335.04 373.687 333.559 373.814 329.572 374.19Z" fill="#7178B8"/>
<path d="M275.166 282.716C275.034 282.716 274.886 282.689 274.719 282.633C271.459 281.535 268.201 280.43 264.941 279.328C264.139 279.057 264.434 278.467 264.555 277.978C265.163 275.504 265.759 273.026 266.452 270.575C266.713 269.653 266.51 269.146 265.725 268.548C263.647 266.965 261.675 265.25 259.506 263.457C256.638 264.483 253.471 265.615 250.217 266.777C247.886 263.585 246.236 260.122 245.095 256.287C247.981 254.602 250.868 252.921 253.412 251.44C253.308 248.383 253.146 245.552 253.154 242.721C253.156 241.905 252.908 241.589 252.207 241.288C249.773 240.239 247.373 239.115 244.947 238.047C244.423 237.818 244.076 237.596 244.209 236.953C244.881 233.689 245.827 230.523 247.479 227.572C247.744 227.102 248.026 226.929 248.411 226.929C248.56 226.929 248.724 226.955 248.909 226.996C251.571 227.639 254.246 228.23 256.905 228.88C257.103 228.929 257.274 228.959 257.43 228.959C257.783 228.959 258.062 228.812 258.401 228.429C260.101 226.511 261.889 224.661 263.722 222.86C264.19 222.398 264.173 222.078 263.981 221.571C262.908 218.754 261.858 215.931 260.772 213.035C264.09 210.866 267.544 209.121 271.428 208.02C273.198 210.873 274.956 213.705 276.639 216.419C279.934 216.235 283.125 216.058 286.539 215.867C287.544 213.784 288.684 211.377 289.865 208.986C290.49 207.726 290.535 207.294 291.113 207.294C291.432 207.294 291.912 207.425 292.742 207.621C292.873 207.651 293.011 207.655 293.149 207.655C293.172 207.655 293.194 207.655 293.216 207.655C293.242 207.655 293.266 207.655 293.291 207.655C293.341 207.655 293.391 207.655 293.44 207.655C295.388 208.332 297.336 209.005 299.284 209.678C299.688 209.903 300.067 210.197 300.5 210.339C301.626 210.712 301.987 211.279 301.63 212.486C300.887 215.002 300.306 217.562 299.721 220.115C299.645 220.454 299.824 220.984 300.083 221.225C301.775 222.785 303.611 224.21 305.212 225.849C305.691 226.338 306.087 226.541 306.544 226.541C306.833 226.541 307.147 226.462 307.522 226.319C310.257 225.285 313.037 224.364 316.077 223.3C317.83 226.797 319.54 230.207 321.27 233.659C320.634 234.046 320.271 234.272 319.902 234.49C317.619 235.817 315.348 237.167 313.042 238.457C312.387 238.821 312.28 239.216 312.327 239.927C312.49 242.375 312.491 244.83 312.637 247.281C312.659 247.657 313.032 248.18 313.389 248.353C315.344 249.301 317.352 250.139 319.326 251.049C320.923 251.782 321.514 252.06 321.62 252.82L317.92 262.867C317.742 263.025 317.546 263.088 317.281 263.088C316.915 263.088 316.418 262.961 315.656 262.769C313.311 262.167 310.964 261.569 308.6 261.051C308.547 261.039 308.49 261.036 308.43 261.036C308.063 261.036 307.585 261.235 307.353 261.479C305.746 263.171 304.244 264.961 302.62 266.638C302.117 267.157 301.944 267.499 302.228 268.198C303.361 270.992 304.415 273.816 305.486 276.598C303.337 278.377 297.067 281.343 294.651 281.697C293.139 279.241 291.555 276.752 290.075 274.211C289.697 273.56 289.362 273.312 288.712 273.312C288.571 273.312 288.415 273.323 288.24 273.346C285.97 273.628 283.666 273.71 281.374 273.748C280.446 273.763 279.868 273.883 279.458 274.812C278.397 277.219 277.185 279.565 276.081 281.956C275.856 282.441 275.587 282.716 275.166 282.716ZM282.877 227.534C275.558 227.534 268.697 231.941 266.096 239.002C262.788 247.981 267.62 257.858 276.888 261.062C278.867 261.746 280.889 262.073 282.876 262.073C290.196 262.073 297.057 257.67 299.659 250.605C302.966 241.626 298.135 231.749 288.866 228.542C286.887 227.861 284.866 227.534 282.877 227.534Z" fill="#EBF3FE"/>
<path d="M287.957 708.193L282.092 708.171C282.867 683.377 283.548 645.721 282.255 643.612C282.258 643.615 282.341 643.747 282.645 643.894L287.404 642.69C288.173 643.066 288.638 643.292 288.798 653.835C288.881 659.261 288.849 666.754 288.705 676.106C288.458 692.025 287.962 708.032 287.957 708.193Z" fill="#355389"/>
<path d="M305.139 707.889H265.576C263.753 707.889 262.276 709.322 262.276 711.089C262.276 711.397 262.535 711.645 262.853 711.645H307.862C308.181 711.645 308.439 711.397 308.439 711.089C308.439 709.322 306.962 707.889 305.139 707.889Z" fill="#355389"/>
<path d="M287.317 704.738H282.471C281.037 704.738 279.875 705.863 279.875 707.254C279.875 708.641 281.037 709.769 282.471 709.769H287.317C288.751 709.769 289.914 708.641 289.914 707.254C289.914 705.863 288.751 704.738 287.317 704.738Z" fill="#355389"/>
<path d="M147.045 711.572V598.55H144.704V711.572H147.045Z" fill="#13375B"/>
<path d="M265.033 536.017C264.818 530.994 265.582 526.035 267.901 521.357C269.897 517.334 274.834 515.052 279.337 515.044C293.636 515.029 295.454 533.333 304.555 540.394C307.337 542.548 310.445 544.308 313.077 546.632C322.794 555.223 318.417 571.128 309.494 578.66C303.302 583.886 293.571 586.856 285.94 582.769C281.956 580.637 278.932 577.092 276.777 573.208C273.719 567.695 271.748 561.333 269.574 555.457C267.259 549.204 265.319 542.695 265.033 536.017Z" fill="#13375B"/>
<path d="M225.587 588.652L256.701 580.244C256.701 580.244 263.256 571.713 271.69 560.268C274.447 562.911 275.98 566.975 278.757 569.592L258.161 591.667C257.417 592.461 256.363 592.919 255.255 592.923L226.663 593.013L216.879 593.769V587.701L225.587 588.652Z" fill="#F48C7F"/>
<path d="M270.381 582.25C270.381 582.25 281.059 571.639 283.807 567.03C286.555 562.42 281.936 565.424 277.217 564.21C275.431 563.751 275.883 553.606 272.505 556.904C266.964 562.315 259.997 571.775 259.997 571.775L270.381 582.25Z" fill="#96D9C9"/>
<path d="M285.562 552.249C285.562 552.249 295.146 550.417 299.519 553.956C303.892 557.497 298.582 588.969 298.586 594.188C298.591 599.406 301.589 614.146 301.589 614.146C301.589 614.146 272.543 619.071 267.929 611.239C267.929 611.239 266.617 581.4 266.812 577.647C267.007 573.895 271.314 558.547 272.504 556.903C273.695 555.26 285.562 552.249 285.562 552.249Z" fill="#50BFA5"/>
<path d="M285.623 537.887C285.623 537.887 285.673 538.165 285.764 538.635C286.198 540.902 287.872 548.422 289.003 550.486C290.369 552.987 284.325 560.95 278.507 559.98C276.775 559.691 279.971 552.66 279.817 551.915C279.523 550.49 279.124 548.546 278.717 546.55C278.486 545.425 278.253 544.286 278.034 543.215C277.412 540.169 276.905 537.676 276.905 537.676L285.623 537.887Z" fill="#F7A491"/>
<path d="M285.764 538.634C285.673 538.164 285.623 537.886 285.623 537.886L276.905 537.675C276.905 537.675 277.412 540.168 278.034 543.214C278.252 544.278 278.484 545.413 278.713 546.53C280.059 546.342 281.465 545.707 282.875 544.515C284.413 543.214 285.42 541.65 286.028 539.98C285.921 539.446 285.831 538.988 285.764 538.634Z" fill="#F47458"/>
<path d="M279.755 518.727C279.755 518.727 283.865 518.268 286.44 521.487C289.016 524.709 291.792 534.673 285.394 540.088C278.996 545.502 272.673 539.373 271.736 532.872C270.798 526.371 270.434 518.49 279.755 518.727Z" fill="#F7A491"/>
<path d="M269.842 532.778C270.606 534.215 271.888 535.008 272.705 534.553C273.523 534.098 273.567 532.564 272.803 531.128C272.039 529.695 270.757 528.898 269.94 529.353C269.122 529.808 269.078 531.342 269.842 532.778Z" fill="#F7A491"/>
<path d="M279.294 517.663C279.294 517.663 284.784 527.135 288.711 527.571C292.639 528.011 293.154 533.045 293.154 533.045C293.154 533.045 291.75 521.446 287.862 519.208C283.974 516.971 279.294 517.663 279.294 517.663Z" fill="#13375B"/>
<path d="M287.682 529.954C287.362 531.635 288.005 533.177 289.116 533.398C290.228 533.62 291.388 532.436 291.708 530.751C292.027 529.071 291.385 527.529 290.273 527.307C289.161 527.085 288.001 528.27 287.682 529.954Z" fill="#F7A491"/>
<path d="M250.735 685.975C250.735 685.975 259.551 696.217 259.609 697.109C259.668 698 259.259 707.727 258.211 708.618C257.162 709.509 254.082 710.141 255.072 711.145C255.821 711.9 261.579 711.739 265.395 711.536C266.509 711.476 267.905 702.865 268.347 701.598C268.988 699.759 270.546 695.62 269.963 694.337C269.68 693.713 268.321 692.431 266.408 691.235C264.395 689.976 256.696 679.594 256.696 679.594L250.735 685.975Z" fill="#F48C7F"/>
<path d="M266.284 691.17C266.284 691.17 260.364 707.323 258.047 708.101C257.432 708.308 254.479 708.834 253.922 710.098C253.754 710.481 253.922 711.752 253.922 711.752H266.262C266.262 711.752 267.822 704.638 268.439 701.51C268.439 701.51 271.705 693.873 271.343 693.178C270.98 692.482 266.284 691.17 266.284 691.17Z" fill="#B75742"/>
<path d="M197.925 690.893C197.925 690.893 190.725 700.714 191.359 703.82C191.698 705.485 193.208 707.662 192.342 709.226C191.475 710.794 190.484 711.185 190.484 711.185L168.026 711.535C166.802 711.554 167.611 710.791 168.597 710.091C170.212 708.944 171.515 708.185 176.672 705.771C177.009 705.613 178.233 704.861 178.675 704.602C179.795 703.94 180.919 702.898 181.887 701.857C183.5 700.12 190.591 685.975 190.591 685.975L197.925 690.893Z" fill="#F7A491"/>
<path d="M178.678 704.598C184.618 706.072 189.009 705.072 191.465 704.113C192.098 705.851 192.938 708.028 192.492 709.283C191.947 710.821 191.171 711.167 190.485 711.186C185.06 711.321 170.612 711.509 166.475 711.562C165.898 711.569 165.579 710.915 165.95 710.487C166.976 709.302 178.236 704.862 178.678 704.598Z" fill="#B75742"/>
<path d="M223.968 630.306C223.968 630.306 232.883 640.164 235.157 641.725C237.431 643.289 259.253 682.224 259.253 682.224L251.478 687.721C251.478 687.721 231.976 664.161 222.817 651.557C215.072 640.901 217.925 641.578 213.371 635.088C210.864 631.52 211.432 626.689 214.738 623.793C215.149 623.432 215.596 623.056 216.082 622.665C222.823 617.221 269.031 611.096 269.031 611.096L298.586 613.897C298.586 613.897 274.439 630.306 273.538 630.742C272.636 631.178 240.191 635.765 239.515 635.765C238.839 635.765 223.968 630.306 223.968 630.306Z" fill="#B75742"/>
<path d="M301.589 614.147C301.589 614.147 306.659 628.886 299.054 635.763C291.45 642.636 246.274 641.873 231.403 641.873C231.403 641.873 225.32 658.03 224.644 660.647C223.968 663.267 194.451 697.107 194.451 697.107L186.34 692.084C186.34 692.084 218.109 632.27 220.588 629.649C223.066 627.029 258.441 616.549 267.229 614.147C276.016 611.748 301.589 614.147 301.589 614.147Z" fill="#F47458"/>
<path d="M242.808 587.639L269.785 581.856C269.785 581.856 279.541 569.707 288.911 559.255C291.668 561.902 293.201 565.962 295.978 568.579L275.381 590.654C274.639 591.452 273.584 591.906 272.476 591.91L243.884 592L234.099 592.756V586.691L242.808 587.639Z" fill="#F7A491"/>
<path d="M287.6 581.241C287.6 581.241 298.278 570.63 301.026 566.024C303.774 561.414 301.736 553.691 297.018 552.477C292.299 551.266 277.216 570.765 277.216 570.765L287.6 581.241Z" fill="#96D9C9"/>
<path d="M187.385 557.881H231.877C233.054 557.881 234.115 558.573 234.561 559.626L248.261 591.999H272.789C273.476 591.999 274.031 592.541 274.031 593.202C274.031 593.868 273.476 594.406 272.789 594.406H202.979C201.059 594.406 199.319 593.315 198.533 591.616L184.739 561.844C183.877 559.983 185.281 557.881 187.385 557.881Z" fill="#B75742"/>
<path d="M211.339 576.735C211.64 578.19 212.949 579.16 214.263 578.908C215.578 578.653 216.399 577.269 216.099 575.814C215.798 574.359 214.489 573.385 213.175 573.641C211.86 573.896 211.039 575.28 211.339 576.735Z" fill="white"/>
<path d="M277.479 599.867H144.554C142.998 599.867 141.736 598.645 141.736 597.137C141.736 595.629 142.998 594.407 144.554 594.407H277.479C279.035 594.407 280.297 595.629 280.297 597.137C280.297 598.645 279.035 599.867 277.479 599.867Z" fill="#184655"/>
<path d="M277.283 536.506L283.311 536.205C283.311 536.205 283.291 538.431 280.644 538.638C277.416 538.89 277.283 536.506 277.283 536.506Z" fill="white"/>
<path d="M258.423 643.384L261.145 632.405C263.048 624.727 270.067 619.14 278.212 618.82L312.691 617.47L313.755 614.067L278.072 615.466C268.386 615.846 260.041 622.49 257.777 631.619L254.884 643.286C255.863 643.328 257.058 643.361 258.423 643.384Z" fill="#355389"/>
<path d="M304.671 637.537C304.671 637.537 257.3 638.323 252.361 637.537C247.423 636.752 245.285 642.749 246.759 645.892C248.233 649.036 252.287 650.25 258.258 650.536C264.229 650.822 313.909 652.179 315.31 650.893C316.453 649.84 331.514 599.952 336.994 581.709C338.089 578.062 335.929 574.253 332.168 573.181C328.425 572.117 324.495 574.178 323.363 577.795L304.671 637.537Z" fill="#184655"/>
<path d="M277.489 711.572V598.55H275.148V711.572H277.489Z" fill="#13375B"/>
<path d="M276.905 605.866H144.704V607.081H276.905V605.866Z" fill="#13375B"/>
<path d="M629.472 54.7151C629.472 54.7151 646.648 65.4875 688.978 64.0211C688.978 64.0211 643.609 80.6253 625.867 83.1934L618.567 55.2528L629.472 54.7151Z" fill="#EC4962"/>
<path d="M637.568 68.7851C637.568 68.7851 634.103 76.651 625.868 83.1934L622.065 68.6309L622.309 61.5884L637.568 68.7851Z" fill="#B75742"/>
<path d="M572.287 38.7756C572.287 38.7756 621.882 35.5306 629.597 38.2754L637.568 68.7841C637.568 68.7841 609.34 66.4341 581.838 75.3228L572.287 38.7756Z" fill="#EC4962"/>
<path d="M542.409 378.853C542.409 378.853 540.023 382.632 540.236 383.753C540.454 384.869 543.325 396.717 544.909 397.499C546.492 398.285 550.501 398.131 549.6 399.669C548.921 400.83 541.758 402.376 536.977 403.282C535.58 403.545 531.074 393.329 530.119 391.9C528.734 389.825 525.474 385.181 525.781 383.422C525.928 382.564 527.193 380.568 529.169 378.507C531.249 376.342 532.723 372.292 532.723 372.292L542.409 378.853Z" fill="#F48C7F"/>
<path d="M577.111 377.774L576.304 386.268C576.412 387.55 576.377 390.795 576.669 391.916C577.771 396.123 595.315 383.542 590.441 382.756C589.999 382.685 588.4 381.643 587.895 380.245C587.119 378.086 588.245 374.868 588.245 374.868L577.111 377.774Z" fill="#F7A491"/>
<path d="M569.998 225.496C569.998 225.496 575.067 239.081 575.121 239.291C581.012 261.832 597.128 304.73 597.357 309.186C597.92 320.045 588.672 378.426 588.672 378.426L575.847 380.039L575.567 312.927L562.959 288.979L541.39 240.818L569.998 225.496Z" fill="#7178B8"/>
<path d="M531.447 248.071L532.534 261.856L540.349 317.782L529.899 376.874C529.899 376.874 535.343 383.766 540.675 383.612L565.151 319.568L570.972 243.875L566.074 228.576L531.447 248.071Z" fill="#9BA0C6"/>
<path d="M529.305 378.395C529.305 378.395 541.832 396.555 544.948 396.815C545.774 396.886 549.593 396.638 550.687 398.033C551.017 398.454 551.716 400.556 551.716 400.556L535.999 404.936C535.999 404.936 531.75 395.499 529.98 391.822C529.98 391.822 523.48 383.373 523.701 382.407C523.926 381.44 529.305 378.395 529.305 378.395Z" fill="#13375B"/>
<path d="M575.889 394.07L576.37 386.167C576.37 386.167 581.582 386.941 583.852 386.043C586.122 385.14 590.379 382.727 590.379 382.727C600.558 383.418 608.637 382.986 607.865 385.738L575.889 394.07Z" fill="#13375B"/>
<path d="M600.213 179.651L606.992 184.689C608.296 183.715 611.152 179.606 613.003 178.327L606.81 171.781C606.302 171.42 606.026 170.822 606.088 170.213C606.131 169.785 606.193 169.375 606.259 169.206C606.449 168.687 606.624 168.07 606.818 167.551C607.008 167.036 605.731 165.994 605.06 165.81C604.388 165.626 604.163 168.119 603.872 168.86C602.995 171.097 601.94 177.222 601.734 178.237L600.213 179.651Z" fill="#F48C7F"/>
<path d="M607.726 184.049C605.821 182.083 603.135 180.978 601.141 178.932L571.062 198.999C571.062 198.999 547.805 172.356 535.177 181.797C540.704 190.814 547.367 199.454 550.797 203.571C558.52 212.836 570.313 217.258 572.614 216.231C575.206 215.081 607.047 184.843 607.726 184.049Z" fill="#13375B"/>
<path d="M476.16 117.35C477.157 119.918 478.877 123.96 478.877 123.96C478.923 125.118 479.171 129.942 479.486 135.857L487.95 131.364C487.95 131.364 486.65 121.825 486.975 121.193C487.251 120.659 487.891 121.208 490.146 117.11C490.794 115.925 490.697 113.959 490.697 113.959C490.697 113.959 490.561 111.541 489.979 111.383C489.393 111.225 488.799 111.658 488.652 112.094C488.501 112.534 488.675 113.492 488.524 113.932C488.373 114.369 487.15 115.019 486.607 115.057C486.06 115.094 485.788 107.954 485.788 107.954C485.788 107.954 485.838 105.912 485.908 105.236C485.97 104.664 486.293 102.961 486.293 102.961C486.293 102.961 486.611 100.509 485.827 100.415C485.361 100.363 484.457 102.431 483.929 104.574C483.359 106.882 483.172 109.281 482.928 109.281C482.35 109.274 482.167 105.36 482.167 105.36C482.167 105.36 482.509 103.517 482.392 102.679C482.796 101.592 482.916 99.6444 481.954 99.5956C481.775 99.588 480.84 102.152 480.84 102.152C480.84 102.152 480.565 103.916 480.378 104.743C480.052 106.209 480.254 108.435 480.115 109.443C479.998 110.281 479.761 109.973 479.676 110.014C479.61 110.052 479.591 108.913 479.536 107.356C479.509 106.57 479.307 105.683 479.42 104.773C479.525 103.931 479.497 102.743 479.463 102.028C479.366 100.005 478.089 100.363 477.868 102.25C477.782 102.968 477.697 103.75 477.611 104.544C477.289 107.634 477.67 110.53 477.34 110.59C476.909 110.672 476.537 105.367 476.537 105.367C476.537 105.367 475.504 102.525 475.182 105.311C474.806 108.544 475.205 111.101 475.229 111.21C475.396 111.97 475.167 114.782 476.16 117.35Z" fill="#F8A492"/>
<path d="M535.542 141.891C535.542 141.891 530.435 137.796 527.498 143.85C527.498 143.85 524.502 142.654 522.872 145.602C522.872 145.602 517.621 144.718 517.307 152.204C517.307 152.204 514.641 152.035 514.672 155.077C514.703 158.123 516.527 159.939 516.527 159.939C516.527 159.939 515.196 161.176 516.205 163.86C517.062 166.139 519.115 166.263 519.115 166.263C519.115 166.263 520.148 170.158 522.068 171.14C523.989 172.125 526.329 171.271 526.329 171.271C526.329 171.271 527.238 173.339 529.279 172.907C531.324 172.474 533.644 170.267 536.062 170.854C538.484 171.44 544.374 169.831 544.374 169.831C544.374 169.831 550.75 166.135 547.898 159.694C547.898 159.694 551.057 156.182 547.491 152.825C547.491 152.825 549.027 146.745 544.122 143.835C539.217 140.928 535.542 141.891 535.542 141.891Z" fill="#F47458"/>
<path d="M549.986 183.964L539.597 178.79C539.597 178.79 530.369 180.091 529.224 180.227C528.08 180.362 525.926 222.019 525.744 237.623C525.561 253.227 527.529 255.757 527.529 255.757C527.529 255.757 542.566 257.228 553.281 255.028C564.422 252.742 576.355 245.365 576.355 245.365C576.355 245.365 563.044 216.981 559.982 207.99C556.925 199 549.986 183.964 549.986 183.964Z" fill="#F7CC7F"/>
<path d="M529.635 180.126L495.52 153.701C495.52 153.701 487.747 125.843 487.312 124.809C486.885 123.794 479.271 124.113 476.194 124.181C475.208 124.203 480.478 154.321 482.566 159.228C485.034 165.026 511.403 189.665 511.403 189.665C511.403 189.665 517.368 203.987 517.733 214.962C518.338 233.191 516.999 258.518 517.892 259.203C523.204 261.639 542.189 259.74 543.155 257.729C553.815 235.514 529.635 180.126 529.635 180.126Z" fill="#13375B"/>
<path d="M538.697 173.378L540.253 179.173C540.253 179.173 543.148 187.445 540.991 189.358C538.833 191.272 529.651 180.173 529.651 180.173L528.6 165.152L538.697 173.378Z" fill="#F7A491"/>
<path d="M528.941 170.015C531.529 174.877 536.567 177.464 540.016 178.291L538.697 173.377L528.6 165.15L528.941 170.015Z" fill="#F47458"/>
<path d="M514.765 156.475C515.048 158.749 516.612 160.438 518.257 160.242C519.903 160.05 521.009 158.05 520.725 155.779C520.442 153.504 518.874 151.816 517.229 152.012C515.583 152.203 514.481 154.204 514.765 156.475Z" fill="#F47458"/>
<path d="M522.6 146.584C522.763 147.889 524.521 148.757 526.523 148.524C528.526 148.287 530.016 147.039 529.853 145.731C529.69 144.426 527.932 143.557 525.929 143.79C523.927 144.027 522.437 145.276 522.6 146.584Z" fill="#F47458"/>
<path d="M532.099 148.828C536.69 146.666 542.185 149.152 543.516 153.855C544.094 155.897 544.707 158.48 545.118 161.334C546.104 168.2 543.267 175.325 540.043 175.705C536.818 176.081 527.349 172.674 525.808 162.943C524.854 156.935 527.279 151.096 532.099 148.828Z" fill="#F7A491"/>
<path d="M528.281 163.436C528.471 164.955 527.587 166.309 526.306 166.459C525.025 166.609 523.83 165.5 523.644 163.981C523.454 162.462 524.338 161.112 525.619 160.962C526.9 160.812 528.091 161.921 528.281 163.436Z" fill="#F7A491"/>
<path d="M545.639 143.769C549.29 145.934 550.944 149.679 549.329 152.138C547.719 154.594 543.454 154.831 539.802 152.665C536.154 150.499 534.501 146.75 536.112 144.295C537.726 141.836 541.991 141.603 545.639 143.769Z" fill="#F47458"/>
<path d="M537.195 146.884C537.335 147.993 536.062 149.057 534.354 149.256C532.647 149.455 531.149 148.718 531.009 147.609C530.869 146.496 532.142 145.432 533.85 145.233C535.557 145.034 537.055 145.771 537.195 146.884Z" fill="#F47458"/>
<path d="M547.463 154.355C547.642 155.784 546.606 157.077 545.146 157.25C543.691 157.42 542.364 156.401 542.186 154.972C542.007 153.543 543.043 152.25 544.502 152.077C545.958 151.907 547.285 152.926 547.463 154.355Z" fill="#F47458"/>
<path d="M558.647 190.162C558.647 190.162 573.068 223.19 578.198 234.831C578.753 236.091 581.543 244.325 581.644 245.145C581.873 246.968 573.968 250.243 572.978 250.221C572.094 250.202 560.483 215.32 553.738 198.374C551.449 192.632 548.1 187.346 543.846 182.774L540.567 180.153L540.253 179.172C540.253 179.172 554.899 180.435 558.647 190.162Z" fill="#13375B"/>
<path d="M630.858 257.663L628.273 258.294L569.489 33.3486L572.077 32.7131L630.858 257.663Z" fill="#13375B"/>
<path d="M614.269 175.389C614.176 174.889 614.009 174.382 613.799 173.874C613.559 173.333 613.167 172.678 612.903 172.487C612.732 172.363 612.608 171.968 612.445 171.569C612.394 171.441 612.329 171.317 612.243 171.204L612.239 171.197C611.995 170.87 611.688 170.599 611.351 170.366C611.032 170.148 610.753 169.855 610.396 169.362C610.117 168.979 609.756 168.651 609.321 168.445C608.894 168.245 608.564 168.238 608.413 168.493C607.703 169.674 604.156 173.442 605.592 175.261C606.795 176.788 608.362 178.375 608.685 179.093C609.131 180.082 610.691 180.014 611.622 179.672C613.376 179.021 614.754 177.95 614.269 175.389Z" fill="#F7A491"/>
<path d="M814.53 710.677H59.3741V713.271H814.53V710.677Z" fill="#184655"/>
<path d="M561.359 131.753C561.499 131.445 561.984 131.392 562.217 131.625C562.589 132.001 562.969 132.37 563.346 132.742C564.18 133.565 564.188 133.622 564.312 133.603C564.611 133.558 564.622 133.035 564.607 132.843C564.572 132.415 564.428 131.994 564.483 131.561C564.595 130.719 565.395 130.287 566.113 130.851C566.768 131.369 567.397 131.926 568.022 132.486C568.069 131.565 568.092 130.644 568.154 129.726C568.177 129.399 568.519 129.256 568.783 129.456C569.365 129.899 571.095 131.208 571.666 131.64C571.813 131.753 572.434 132.351 572.617 132.242C572.776 132.144 572.764 131.501 572.78 131.358C572.869 130.572 572.912 130.294 573.265 127.737C573.307 127.433 573.789 127.29 573.994 127.527C576.024 129.881 576.33 129.636 576.517 130.339C576.556 130.497 576.424 130.602 576.272 130.587C575.88 130.55 575.791 130.516 574.778 129.565C574.514 129.32 574.258 129.068 574.01 128.813C573.645 131.926 573.629 132.719 572.826 132.952C572.267 133.114 572.174 132.945 568.911 130.46C568.907 131.426 568.849 132.388 568.806 133.355C568.79 133.723 568.383 133.896 568.092 133.663C565.752 131.798 565.771 131.659 565.519 131.546C565.511 131.546 565.515 131.377 565.476 131.618C565.406 132.028 565.806 132.911 565.511 133.652C565.251 134.306 564.514 134.806 563.8 134.464C563.385 134.268 563.272 134.069 562.022 132.904C561.65 133.652 561.188 134.355 560.606 135.051C560.354 135.351 560.148 135.517 559.772 135.648C559.461 135.757 559.096 135.438 559.197 135.13C559.488 134.25 560.303 134.039 561.359 131.753Z" fill="#F47458"/>
<path d="M550.606 120.337C551.487 120.483 552.333 120.562 553.26 120.559C553.435 120.559 553.761 120.596 553.877 120.423C554.149 120.017 553.431 119.382 553.113 117.784C552.977 117.088 552.624 115.667 553.59 115.385C554.083 115.238 554.696 115.351 555.205 115.366C555.589 115.373 555.977 115.37 556.361 115.37C555.674 112.772 555.515 112.914 555.791 112.335C555.864 112.185 556.105 112.11 556.249 112.204C556.788 112.55 556.633 112.478 557.533 115.75C557.618 116.047 557.397 116.407 557.052 116.4C556.528 116.385 554.169 116.201 553.877 116.227L553.866 116.404C553.881 117.483 554.262 118.397 554.654 119.385C554.972 120.194 554.952 121.284 553.889 121.514C553.315 121.638 552.131 121.555 551.223 121.453C551.704 123.036 552.193 124.619 552.663 126.206C552.756 126.518 552.508 126.954 552.131 126.92C551.076 126.83 550.02 126.774 548.965 126.725C549.256 127.654 549.694 128.537 550.265 129.346C550.684 129.936 549.822 130.662 548.871 129.098C548.309 128.236 547.905 127.296 547.657 126.289C547.575 125.958 547.804 125.567 548.192 125.574C549.24 125.593 550.288 125.657 551.332 125.74C550.874 124.157 550.435 122.57 549.974 120.987C549.861 120.596 550.214 120.273 550.606 120.337Z" fill="#66CCB2"/>
<path d="M526.081 111.512C525.774 111.504 525.588 111.309 525.545 111.027C525.335 109.632 525.254 108.259 525.541 106.864C525.692 106.142 526.779 106.413 526.678 107.124C526.519 108.233 526.414 109.38 526.523 110.504C527.373 110.485 528.211 110.391 529.042 110.196C529.356 110.12 529.767 110.327 529.744 110.688C529.69 111.583 529.375 114.971 529.336 115.001C529.344 114.997 529.367 114.993 529.426 115.005C529.79 115.076 531.044 114.824 531.614 114.858C532.251 114.899 532.453 115.734 532.488 116.242C532.553 117.268 531.762 118.4 532.131 119.404C532.488 120.37 534.059 119.306 535.227 120.096C536.131 120.705 535.817 121.727 535.448 123.344C535.355 123.743 535.262 124.13 534.855 124.326C534.758 124.374 534.61 124.382 534.529 124.292C534.086 123.795 534.315 123.213 534.614 121.735C534.649 121.547 534.773 121.227 534.637 121.058C534.187 120.494 532.86 121.299 531.789 120.622C530.955 120.096 530.834 119.062 530.97 118.186C531.079 117.501 531.513 116.655 531.285 115.956C530.679 115.986 530.066 116.035 529.461 116.02C528.801 116.005 528.351 115.666 528.32 115.012C528.281 114.286 528.409 113.534 528.467 112.809C528.506 112.324 528.541 111.839 528.587 111.354C527.757 111.481 526.923 111.538 526.081 111.512Z" fill="#07345A"/>
<path d="M569.889 147.068C572.415 150.207 570.036 151.726 568.977 150.816C568.523 150.429 568.504 149.752 569.035 149.421C569.28 149.271 569.668 149.508 569.567 149.797C569.485 150.034 569.765 150.098 569.881 149.846C570.033 149.504 569.784 149.083 569.633 148.782C569.272 148.087 568.814 147.173 567.925 147.037C566.602 146.834 565.162 148.12 565.888 150.083C566.94 152.914 571.674 152.881 572.532 149.918C572.997 148.305 572.33 146.549 570.983 145.526C570.719 145.327 571.042 144.988 571.309 145.097C573.327 145.936 574.041 148.478 573.304 150.38C572.547 152.328 570.393 153.264 568.341 152.926C566.187 152.572 564.433 150.741 564.716 148.553C565.026 146.158 568.119 144.875 569.889 147.068Z" fill="#3C8F7C"/>
<path d="M517.71 120.849C518.063 121.36 518.261 122.402 517.547 122.725C517.213 122.875 516.813 122.778 516.697 122.405C516.584 122.041 516.79 121.706 516.452 121.42C516.165 121.176 515.734 121.311 515.467 121.522C514.64 122.172 514.853 123.601 515.284 124.406C515.963 125.688 517.822 125.947 518.75 124.601C519.037 124.18 519.11 123.684 519.239 123.202C519.308 122.939 519.747 122.819 519.887 123.105C520.422 124.199 519.669 125.522 518.703 126.143C517.694 126.797 516.274 126.741 515.276 126.094C514.159 125.372 513.627 123.954 513.674 122.687C513.767 120.055 516.58 119.194 517.71 120.849Z" fill="#F7CC7F"/>
<path d="M389.482 488.18C389.482 488.18 390.685 490.075 393.064 488.932C395.963 487.533 394.806 485.424 394.806 485.424L389.482 488.18Z" fill="white"/>
<path d="M536.295 167.993C536.295 167.993 536.532 170.208 539.186 170.17C542.426 170.125 542.326 167.741 542.326 167.741L536.295 167.993Z" fill="white"/>
</svg>
