<svg width="870" height="752" viewBox="0 0 870 752" fill="none" xmlns="http://www.w3.org/2000/svg">
<style>
    #flag3, #flag2, #flag1 { animation: upDown 1.2s alternate infinite ease-in-out; }
    #flag3 { animation-delay: .2s }
    @keyframes upDown {
    to { transform: translatey(10px);}
  }
  @keyframes translate {
    to { transform: translatex(900%);}
  }
</style>
<g id="layer1">
<g id="g17">
<path id="path21" d="M51.989 711C51.989 711 -34.6909 466.24 136.144 466.24C226.408 466.24 189.224 399.082 250.592 321.364C311.96 243.643 526.576 181.55 572.255 331.63C617.934 481.706 505.045 595.655 614.129 576.109C745.217 552.617 797 711 797 711H51.989" fill="#D9DCEC"/>
<path id="path21_2" d="M773.28 207.185C757.944 219.582 736.155 233.34 718.21 239.262L744.87 244.255L634.745 373.392L415.253 436.211L155.505 711.683L360.116 711.612L464.371 545.157L673.247 421.746L754.371 249.831L771.65 270.632C768.195 252.147 769.779 226.527 773.28 207.185" fill="#EC4962"/>
<path id="path23" d="M117.62 498.958C117.62 498.958 105.723 477.752 102.829 473.244C99.9345 468.739 92.3949 450.826 92.1253 450.12C91.8561 449.413 97.3177 440.938 96.0987 440.648C94.8794 440.355 93.5303 445.115 92.2297 444.547C90.929 443.98 87.1295 432.519 86.3881 433.091C85.0012 434.151 88.4362 440.197 87.697 440.577C86.9575 440.956 84.718 433.929 83.2661 434.136C81.8142 434.343 86.0274 440.577 85.6213 441.129C85.2152 441.678 80.8414 435.805 80.05 437.057C79.6201 437.738 84.0715 442.186 83.2166 442.603C82.3617 443.021 78.4019 440.148 77.9826 440.975C77.5633 441.802 81.6448 442.938 82.8653 445.171C84.0855 447.405 86.1639 448.367 87.027 452.503C87.8906 456.639 89.1803 471.6 93.6018 479.068C98.0229 486.531 107.746 503.057 107.746 503.057L117.62 498.958" fill="#F79C8D"/>
<path id="path25" d="M114.328 492.087C114.328 492.087 127.487 506.191 129.443 511.876C131.4 517.561 127.537 525.69 122.201 526.048C116.865 526.401 104.991 501.014 104.991 501.014L114.328 492.087" fill="#355389"/>
<path id="path27" d="M176.312 594.198C175.354 593.401 174.196 593.762 170.872 592.231C170.228 591.934 168.535 591.464 167.776 591.314C167.634 591.284 167.522 591.179 167.484 591.039C166.474 587.234 162.047 569.656 161.561 564.588C161.064 559.403 157.702 537.426 157.19 534.083C157.155 533.857 156.928 533.711 156.705 533.775L147.046 536.452C146.848 536.508 146.728 536.707 146.773 536.907C147.37 539.524 151.082 555.974 152.173 564.298C153.042 570.935 162.984 592.224 163.183 593.585L163.189 593.623C163.249 594.032 163.601 594.337 164.018 594.337C166.47 594.337 174.333 594.333 174.782 594.337C175.191 594.341 176.611 594.446 176.312 594.198Z" fill="#F48C7F"/>
<path id="path29" d="M154.805 524.598C149.665 509.091 143.917 509.753 143.917 509.753L148.362 542.349C151.536 541.487 155.669 539.566 158.84 538.675C157.788 533.772 156.071 528.414 154.805 524.598" fill="#13375B"/>
<path id="path31" d="M153.209 484.281C151.635 474.084 142.358 466.752 132.656 471.7C130.474 472.809 127.52 475.069 126.013 476.994C121.938 482.194 120.896 488.616 116.687 493.666C118.233 494.831 120.103 496.053 122.329 497.23L124.95 493.756L124.048 498.091C130.561 501.189 139.76 503.746 152.342 503.675C153.923 496.591 154.048 489.718 153.209 484.281Z" fill="#F7CC7F"/>
<path id="path33" d="M156.233 710.32C154.752 709.237 153.558 708.519 148.828 706.237C148.519 706.09 147.396 705.376 146.991 705.131C145.964 704.507 144.933 703.522 144.045 702.537C143.197 701.597 142.793 698.581 142.603 696.179C143.089 690.809 150.911 604.72 152.561 595.399C154.264 585.781 151.67 571.106 151.67 571.106L145.632 568.843L134.169 608.349L135.073 638.425C135.073 638.425 132.377 647.092 132.037 652.273C131.696 657.454 135.933 699.503 135.933 699.503H135.934C135.934 701.007 135.874 702.364 135.706 703.214C135.395 704.785 133.663 708.023 134.457 709.504C135.252 710.986 136.161 711.354 136.161 711.354L156.757 711.685C157.879 711.704 157.138 710.986 156.233 710.32" fill="#F48C7F"/>
<path id="path35" d="M124.974 568.021C124.974 568.021 117.821 578.752 116.118 587.633C114.415 596.511 117.368 623.801 114.092 635.438C112.319 641.74 105.598 651.467 104.576 659.607C103.554 667.748 99.9991 691.24 99.9991 691.24H99.9995C99.4618 693.707 98.619 696.76 97.5256 698.177C96.856 699.046 95.6332 700.144 94.8305 701.712C93.5809 704.156 94.2717 707.792 95.1935 709.792C95.6665 710.819 95.1598 710.819 96.2374 711.149C99.4274 712.131 102.821 710.476 104.179 707.431C104.938 705.731 105.604 703.46 105.737 700.603C105.879 697.572 106.356 695.162 106.864 693.383L129.726 637.611L146.277 589.48L150.517 564.69L124.974 568.021" fill="#F79C8D"/>
<path id="path37" d="M104.798 705.826C99.8497 706.728 96.5572 703.84 94.844 701.682C93.5865 704.13 92.9728 707.781 93.898 709.789C94.7128 711.56 97.0937 711.507 98.9687 711.578C100.951 711.65 102.485 710.556 103.468 708.834C103.927 708.029 104.401 707.029 104.798 705.826" fill="#86B1F2"/>
<path id="path39" d="M146.989 705.128C141.541 706.523 137.515 705.576 135.262 704.669C134.681 706.312 133.911 708.369 134.32 709.557C134.82 711.009 135.532 711.34 136.161 711.355C141.136 711.486 154.386 711.663 158.18 711.712C158.71 711.719 159.002 711.103 158.661 710.697C157.72 709.576 147.394 705.376 146.989 705.128Z" fill="#86B1F2"/>
<path id="path41" d="M129.612 637.72C130.039 637.75 130.47 637.776 130.902 637.803L130.969 637.806C131.393 637.833 131.819 637.855 132.247 637.878L132.325 637.882C132.753 637.904 133.183 637.927 133.613 637.946H133.679C134.117 637.964 134.555 637.983 134.994 637.994C139.876 638.156 145.907 638.092 149.776 637.438C151.749 617.8 152.483 599.879 153.214 595.913C154.984 586.291 151.67 571.108 151.67 571.108L150.088 570.826L151.088 565.201L124.525 568.532C124.525 568.532 117.088 579.263 115.317 588.141C113.546 597.022 116.617 624.312 113.21 635.949C113.21 635.949 120.793 637.126 129.612 637.72" fill="#F7CC7F"/>
<path id="path43" d="M130.763 506.969C130.763 506.969 121.292 506.368 117.546 510.44C113.8 514.508 125.857 546.705 126.538 551.886C127.219 557.064 123.065 570.84 123.065 570.84C123.065 570.84 145.311 575.3 151.669 571.107C151.669 571.107 152.35 533.857 151.669 530.157C150.988 526.457 145.311 511.41 143.949 509.928C142.586 508.451 130.763 506.969 130.763 506.969" fill="#355389"/>
<path id="path45" d="M133.916 494.356C133.916 494.356 133.866 494.634 133.778 495.108C133.356 497.375 131.73 504.903 130.632 506.975C129.304 509.475 135.176 517.45 140.828 516.476C142.51 516.187 139.406 509.148 139.555 508.404C139.84 506.975 140.228 505.027 140.624 503.03C140.848 501.906 141.074 500.763 141.287 499.692C141.891 496.639 142.384 494.146 142.384 494.146L133.916 494.356" fill="#F7A491"/>
<path id="path47" d="M133.779 495.11C133.867 494.636 133.916 494.358 133.916 494.358L142.385 494.147C142.385 494.147 141.892 496.64 141.287 499.693C141.076 500.757 140.851 501.893 140.629 503.013C139.321 502.822 137.955 502.19 136.585 500.994C135.091 499.689 134.113 498.125 133.522 496.452C133.627 495.922 133.714 495.459 133.779 495.11Z" fill="#F47458"/>
<path id="path49" d="M139.615 475.171C139.615 475.171 135.624 474.712 133.122 477.938C130.619 481.164 127.923 491.136 134.138 496.561C140.354 501.983 146.495 495.843 147.406 489.335C148.316 482.826 148.67 474.938 139.615 475.171" fill="#F7A491"/>
<path id="path51" d="M149.245 489.241C148.503 490.678 147.258 491.475 146.464 491.02C145.67 490.565 145.627 489.027 146.369 487.591C147.111 486.154 148.356 485.357 149.15 485.812C149.945 486.267 149.987 487.805 149.245 489.241Z" fill="#F7A491"/>
<path id="path53" d="M140.062 474.107C140.062 474.107 134.729 483.59 130.914 484.03C127.099 484.466 126.598 489.508 126.598 489.508C126.598 489.508 127.962 477.894 131.739 475.653C135.516 473.416 140.062 474.107 140.062 474.107" fill="#F7CC7F"/>
<path id="path55" d="M131.915 486.414C132.225 488.098 131.601 489.643 130.521 489.861C129.441 490.083 128.314 488.899 128.004 487.214C127.694 485.53 128.318 483.985 129.398 483.763C130.478 483.541 131.605 484.729 131.915 486.414Z" fill="#F7A491"/>
<path id="path57" d="M136.614 492.53L142.385 493.658C142.385 493.658 141.821 495.812 139.268 495.387C136.156 494.872 136.614 492.53 136.614 492.53Z" fill="white"/>
<path id="path59" d="M612.002 712.412L614.369 711.968L604.145 658.038L601.778 658.486L612.002 712.412" fill="#3C8F7C"/>
<path id="path61" d="M502.548 712.655H499.704L510.31 658.037L512.673 658.484L502.548 712.655" fill="#3C8F7C"/>
<path id="path63" d="M585.634 712.655H582.79L593.396 658.037L595.759 658.484L585.634 712.655" fill="#3C8F7C"/>
<path id="path65" d="M528.481 712.655L530.792 712.685L520.621 658.281L518.258 658.729L528.481 712.655" fill="#184655"/>
<path id="path67" d="M569.433 539.669C582.065 541.016 598.414 542.433 614.827 570.133C632.764 600.405 623.323 645.623 609.163 658.188C595.007 670.754 548.766 686.268 509.894 663.039C509.894 663.039 486.426 648.965 498.472 625.604C517.006 589.655 514.39 582.157 522.677 568.069C530.965 553.98 542.618 536.816 569.433 539.669" fill="#F47458"/>
<path id="path69" d="M614.827 570.133C603.624 551.228 592.451 544.565 582.473 541.813C586.333 545.787 590.247 550.897 594.164 557.511C612.101 587.782 602.659 633 588.5 645.566C575.947 656.707 538.16 670.168 502.657 656.872C506.309 660.888 509.893 663.039 509.893 663.039C548.766 686.268 595.007 670.754 609.163 658.188C623.322 645.623 632.763 600.405 614.827 570.133Z" fill="#B75742"/>
<path id="path71" d="M528.874 585.679L525.626 595.369L535.524 591.496L528.874 585.679Z" fill="#F79C8D"/>
<path id="path73" d="M539.074 556.851C538.417 556.881 536.609 557.479 533.963 562.431C530.59 568.755 525.656 587.856 525.656 587.856L540.383 593.289L542.273 589.304L545.389 558.611C545.389 558.611 539.26 556.844 539.074 556.851" fill="#6394DB"/>
<path id="path75" d="M558.543 554.1C554.331 554.108 543.911 555.326 539.075 556.856C539.075 556.856 535.525 587.12 542.274 610.116C543.786 615.264 541.026 631.458 541.026 631.458L584.662 630.887C584.662 630.887 579.494 591.741 581.441 585.417C583.388 579.096 583.437 557.059 583.437 557.059C583.437 557.059 583.135 557.014 573.629 555.386C569.198 554.626 563.039 554.096 558.543 554.1" fill="#86B1F2"/>
<path id="path77" d="M563.628 687.628C563.628 687.628 562.664 698.671 560.887 701.732C559.114 704.789 560.982 709.989 561.076 710.703C561.167 711.414 564.812 712.437 570.604 711.824C576.397 711.211 576.302 709.887 575.837 707.744C575.368 705.605 572.287 702.853 572.098 700.815C571.912 698.777 573.875 691.437 573.875 691.437L563.628 687.628" fill="#F7A491"/>
<path id="path79" d="M545.948 622.344C545.948 622.344 515.821 620.686 509.095 624.724C502.369 628.759 510.312 637.054 510.312 637.054C510.312 637.054 534.836 647.619 575.893 649.969C585.618 650.526 586.453 624.845 584.639 622.717C582.82 620.592 545.948 622.344 545.948 622.344" fill="#E5B05C"/>
<path id="path81" d="M571.326 712.68C577.292 712.048 576.551 709.146 576.071 706.942C575.772 705.562 574.059 703.934 573.039 702.397C572.505 702.818 571.64 703.558 569.05 704.318C566.358 705.104 562.671 703.547 560.323 702.57C559.484 705.66 559.446 709.597 559.525 710.195C559.62 710.932 565.363 713.308 571.326 712.68" fill="#F47458"/>
<path id="path83" d="M568.033 643.7C566.831 652.728 560.872 697.66 560.872 697.66L574.699 699.36C574.699 699.36 591.702 640.711 590.829 631.74C589.959 622.768 583.592 622.016 583.592 622.016C583.592 622.016 571.221 619.809 568.033 643.7" fill="#F7CC7F"/>
<path id="path85" d="M583.91 560.424C579.83 558.905 577.834 595.344 577.285 610.338C570.06 611.027 557.466 610.342 554.327 610.109C552.853 610 549.454 608.767 547.987 608.575C546.482 608.38 545.121 608.278 544.383 608.406C544.111 608.455 536.579 611.508 535.937 612.177C535.135 613.004 532.976 615.099 533.339 616.005C533.706 616.911 537.494 613.482 537.494 613.482L539.347 612.452C537.041 614.685 532.643 617.625 533.275 618.697C533.895 619.738 537.861 616.757 540.689 614.723C538.266 616.892 535.252 620.776 535.944 621.385C536.568 621.927 539.997 617.43 543.657 616.136C545.015 615.655 546.368 616.986 547.435 617.144C548.221 617.264 549.431 617.513 550.202 617.298L554.169 616.182C555.518 616.306 555.552 617.095 556.917 617.385C558.502 617.719 561.099 618.069 563.114 618.558C574.729 621.37 578.601 622.675 582.159 622.675C592.927 622.668 593.555 564.008 583.91 560.424" fill="#F7A491"/>
<path id="path87" d="M591.653 594.63C592.417 579.27 592.307 560.335 583.618 557.105C580.189 555.83 574.143 563.493 575.232 594.942C579.871 595.322 586.681 595.626 591.653 594.63Z" fill="#86B1F2"/>
<path id="path89" d="M523.194 697.078C523.194 697.078 524.4 700.909 522.241 703.447C520.083 705.982 511.106 708.467 509.927 709.843C508.747 711.216 508.838 712.385 508.838 712.385L534.03 711.697L533.758 704.154L532.597 698.736L523.194 697.078" fill="#F7A491"/>
<path id="path91" d="M520.677 704.712C520.677 704.712 527.15 707.306 530.276 705.768C533.403 704.234 533.309 703.809 534.212 704.381C535.12 704.952 535.441 712.656 535.441 712.656L507.11 712.848C505.141 712.803 504.142 711.363 505.746 710.133C506.842 709.287 508.112 708.723 508.835 708.31C511.05 707.054 520.677 704.712 520.677 704.712" fill="#F47458"/>
<path id="path93" d="M524.151 629.42C522.204 625.359 517.776 620.068 509.984 623.253C502.55 626.291 500.554 633.759 502.898 641.403C505.246 649.047 520.684 693.986 521.221 700.164L533.547 700.243C533.547 700.243 531.304 664.662 530.756 656.059C530.227 647.783 527.52 636.447 524.151 629.42" fill="#F7CC7F"/>
<path id="path95" d="M504.143 588.029H545.344C546.433 588.029 547.416 588.684 547.828 589.688L560.517 620.456H583.23C583.865 620.456 584.383 620.967 584.383 621.599C584.383 622.23 583.865 622.742 583.23 622.742H518.583C516.806 622.742 515.195 621.704 514.465 620.091L501.689 591.793C500.891 590.026 502.192 588.029 504.143 588.029" fill="#355389"/>
<path id="path97" d="M526.325 605.947C526.601 607.331 527.815 608.256 529.033 608.011C530.25 607.77 531.01 606.454 530.734 605.071C530.454 603.687 529.241 602.766 528.023 603.007C526.806 603.247 526.046 604.567 526.325 605.947Z" fill="white"/>
<path id="path99" d="M563.549 541.128L565.568 554.341C565.568 554.341 558.202 570.073 553.809 568.708C550.122 567.565 552.391 553.645 552.391 553.645C552.391 553.645 554.399 546.167 553.798 542.426C553.196 538.684 563.549 541.128 563.549 541.128Z" fill="#F7A491"/>
<g id="g101">
<g id="g103">
<path id="path109" d="M553.54 548.14H563.719V541.127H553.54V548.14Z" fill="#F47458"/>
</g>
</g>
<path id="path111" d="M553.54 548.14C553.68 547.241 553.794 546.316 553.858 545.429C553.858 545.425 553.858 545.425 553.858 545.425C553.858 545.41 553.858 545.395 553.862 545.38C553.862 545.376 553.862 545.372 553.862 545.369C553.862 545.361 553.862 545.353 553.862 545.346C553.862 545.342 553.865 545.335 553.865 545.331C553.865 545.327 553.865 545.323 553.865 545.32C553.865 545.316 553.865 545.308 553.865 545.305C553.865 545.301 553.865 545.297 553.865 545.293C553.865 545.286 553.866 545.282 553.869 545.275C553.869 545.271 553.869 545.271 553.869 545.271C553.934 544.244 553.93 543.274 553.805 542.473C553.805 542.47 553.805 542.47 553.805 542.47C553.801 542.462 553.801 542.455 553.801 542.451V542.447C553.797 542.439 553.797 542.432 553.797 542.424C553.779 542.319 553.771 542.214 553.771 542.116C553.775 540.744 555.476 540.345 557.457 540.345C560.229 540.345 563.549 541.127 563.549 541.127L563.719 542.221C563.412 542.955 563.042 543.583 562.596 544.064C560.282 546.538 556.667 548.027 553.54 548.14" fill="#F69A86"/>
<path id="path113" d="M565.251 522.435C565.542 522.33 567.595 537.486 563.701 541.656C559.802 545.826 552.21 547.191 549.488 543.904C546.474 540.272 546.626 523.984 552.687 519.694C558.744 515.404 565.251 522.435 565.251 522.435Z" fill="#F7A491"/>
<path id="path115" d="M554.992 511.586C559.673 512.537 562.706 515.384 563.821 516.594C565.946 516.846 568.838 518.012 571.822 522.926C575.493 528.968 572.782 535.661 568.509 538.947C564.237 542.23 564.297 546.024 564.297 546.024L563.621 544.061C563.125 542.576 562.921 541 563.088 539.44C563.186 538.504 563.39 537.492 563.779 536.661C564.804 534.469 561.571 533.01 560.664 531.187C559.964 529.781 559.93 526.566 558.834 524.246L557.518 522.471C557.518 522.471 554.486 520.125 551.522 520.787C548.557 521.448 548.981 510.368 554.992 511.586Z" fill="#F7CC7F"/>
<path id="path117" d="M560.865 533.883C560.835 535.733 561.678 537.245 562.752 537.263C563.826 537.282 564.722 535.797 564.752 533.951C564.782 532.101 563.939 530.586 562.865 530.567C561.791 530.552 560.895 532.033 560.865 533.883" fill="#F7A491"/>
<path id="path119" d="M555.602 539.008L549.73 538.708C549.73 538.708 549.749 540.934 552.327 541.14C555.473 541.392 555.602 539.008 555.602 539.008" fill="white"/>
<path id="path121" d="M672.616 465.346C673.255 467.966 674.412 472.102 674.412 472.102C674.321 473.242 673.981 477.975 673.58 483.777L682.159 480.363C682.159 480.363 682.053 470.91 682.439 470.331C682.76 469.843 683.304 470.452 685.932 466.71C686.692 465.631 686.836 463.702 686.836 463.702C686.836 463.702 686.991 461.326 686.454 461.104C685.917 460.882 685.305 461.24 685.108 461.649C684.915 462.059 684.964 463.014 684.771 463.424C684.575 463.838 683.335 464.33 682.813 464.304C682.291 464.282 682.877 457.28 682.877 457.28C682.877 457.28 683.172 455.295 683.32 454.645C683.444 454.092 683.951 452.468 683.951 452.468C683.951 452.468 684.545 450.114 683.811 449.933C683.376 449.828 682.272 451.742 681.516 453.772C680.699 455.961 680.238 458.281 680.004 458.247C679.455 458.175 679.747 454.336 679.747 454.336C679.747 454.336 680.291 452.58 680.28 451.749C680.794 450.734 681.134 448.847 680.227 448.693C680.06 448.662 678.866 451.058 678.866 451.058C678.866 451.058 678.393 452.746 678.121 453.532C677.637 454.923 677.565 457.119 677.312 458.085C677.104 458.893 676.915 458.563 676.828 458.596C676.76 458.619 676.877 457.51 677.009 455.983C677.077 455.212 676.99 454.329 677.206 453.453C677.406 452.641 677.52 451.479 677.572 450.779C677.72 448.794 676.461 448.997 676.026 450.813C675.863 451.501 675.69 452.257 675.516 453.024C674.839 455.998 674.858 458.863 674.536 458.89C674.117 458.92 674.393 453.701 674.393 453.701C674.393 453.701 673.75 450.809 673.111 453.49C672.37 456.604 672.449 459.142 672.461 459.254C672.525 460.014 671.973 462.729 672.616 465.346" fill="#F8A492"/>
<path id="path123" d="M763.649 458.448C763.006 461.065 761.853 465.205 761.853 465.205C761.944 466.34 762.28 471.074 762.685 476.879L754.106 473.465C754.106 473.465 754.208 464.009 753.826 463.43C753.501 462.941 752.96 463.554 750.329 459.813C749.572 458.73 749.429 456.801 749.429 456.801C749.429 456.801 749.274 454.428 749.81 454.207C750.344 453.985 750.96 454.338 751.153 454.748C751.349 455.162 751.296 456.117 751.493 456.527C751.686 456.936 752.926 457.433 753.452 457.406C753.973 457.38 753.383 450.379 753.383 450.379C753.383 450.379 753.092 448.397 752.945 447.747C752.82 447.194 752.314 445.57 752.314 445.57C752.314 445.57 751.716 443.212 752.453 443.032C752.884 442.927 753.992 444.84 754.748 446.871C755.565 449.059 756.026 451.379 756.261 451.349C756.809 451.274 756.518 447.439 756.518 447.439C756.518 447.439 755.97 445.679 755.985 444.852C755.471 443.833 755.127 441.949 756.034 441.791C756.204 441.765 757.399 444.16 757.399 444.16C757.399 444.16 757.868 445.844 758.144 446.634C758.624 448.025 758.7 450.217 758.949 451.187C759.161 451.992 759.35 451.661 759.437 451.695C759.505 451.721 759.388 450.612 759.252 449.085C759.187 448.315 759.274 447.427 759.059 446.551C758.858 445.739 758.741 444.581 758.692 443.878C758.545 441.893 759.8 442.096 760.235 443.912C760.401 444.604 760.575 445.356 760.749 446.123C761.422 449.097 761.403 451.966 761.728 451.988C762.144 452.018 761.868 446.799 761.868 446.799C761.868 446.799 762.511 443.912 763.15 446.593C763.891 449.702 763.815 452.24 763.804 452.353C763.736 453.112 764.288 455.827 763.649 458.448" fill="#F8A492"/>
<path id="path125" d="M740.189 680.921C740.189 680.921 744.945 686.786 746.129 687.508C747.312 688.23 745.599 696.746 742.374 697.307C740.556 697.622 739.542 695.63 739.542 695.63L740.064 693.178L733.27 686.215L740.189 680.921" fill="#F7A491"/>
<path id="path127" d="M715.687 682.373C715.687 682.373 719.653 688.791 720.735 689.656C721.816 690.524 719.022 698.755 715.751 698.898C713.906 698.98 713.158 696.879 713.158 696.879L713.993 694.51L708.148 686.742L715.687 682.373" fill="#F7A491"/>
<path id="path129" d="M720.498 689.402C720.498 689.402 718.221 692.29 716.978 693.441C715.374 694.922 713.321 696.373 713.321 696.373C713.321 696.373 710.996 700.57 710.361 702.036C708.943 705.296 707.355 708.932 707.586 710.755C707.657 711.342 708.981 711.962 710.085 711.628C714.679 710.222 726.422 699.536 727.908 696.667C729.617 693.362 720.498 689.402 720.498 689.402Z" fill="#13375B"/>
<path id="path131" d="M686.97 591.628C687.397 590.44 687.806 589.342 688.199 588.308C693.088 589.368 698.604 590.534 704.283 591.737L704.975 612.432C704.971 610.834 700.706 645.433 700.706 645.433C700.706 645.433 711.736 669.723 719.282 683.876C716.186 687.718 714.73 688.959 710.25 691.576C698.536 677.615 683.208 652.066 682.573 647.817C682.206 645.373 681.877 605.874 686.97 591.628" fill="#3C8F7C"/>
<path id="path133" d="M730.576 597.612C729.083 613.738 725.767 644.559 726.043 647.041C726.875 650.131 741.639 678.655 744.297 682.806C742.188 685.968 738.921 689.382 735.408 690.326C734.717 690.514 710.352 656.031 709.021 653.297C707.52 650.203 705.017 633.324 704.975 612.434L704.284 591.738C713.74 593.746 722.436 595.713 730.576 597.612Z" fill="#50BFA5"/>
<path id="path135" d="M699.517 524.115L710.652 525.634C710.652 525.634 719.56 525.796 720.664 525.796C721.768 525.796 728.778 566.242 730.805 581.44C732.827 596.642 731.258 599.33 731.258 599.33C731.258 599.33 717.144 602.489 706.701 601.568C695.838 600.613 683.622 594.781 683.622 594.781C683.622 594.781 692.904 565.573 694.746 556.451C696.583 547.333 699.517 524.115 699.517 524.115Z" fill="#355389"/>
<path id="path137" d="M672.52 475.187C672.52 475.187 671.806 505.301 672.948 507.602C674.611 510.952 693.304 534.712 693.304 534.712C693.304 534.712 684.374 571.879 680.619 584.712C680.241 586.006 678.566 594.353 678.566 595.169C678.566 596.974 686.468 599.263 687.406 599.128C688.245 599.004 695.138 563.652 699.539 546.353C701.029 540.491 703.589 534.952 707.09 530.004L710.148 525.68L686.661 502.27C686.661 502.27 683.769 476.214 683.769 474.055C683.769 473.488 673.662 473.063 672.52 475.187" fill="#86B1F2"/>
<path id="path139" d="M720.278 525.8L749.566 496.122C749.566 496.122 753.645 468.058 753.936 467.001C754.22 465.963 761.494 465.403 764.425 465.117C765.366 465.027 763.933 495.009 762.53 500.033C760.874 505.97 738.737 533.023 738.737 533.023C738.737 533.023 734.771 547.672 735.727 558.418C737.311 576.27 741.591 600.823 740.824 601.594C736.064 604.576 717.798 604.895 716.641 603.042C703.873 582.595 720.278 525.8 720.278 525.8" fill="#86B1F2"/>
<path id="path141" d="M745.86 687.285C745.86 687.285 743.973 690.44 742.888 691.737C741.489 693.41 739.636 695.11 739.636 695.11C739.636 695.11 737.871 699.569 737.428 701.103C736.445 704.518 735.33 708.638 735.795 710.421C735.942 710.992 737.205 712.083 738.249 711.41C742.279 708.8 753.04 696.584 754.144 693.55C755.414 690.053 745.86 687.285 745.86 687.285" fill="#13375B"/>
<path id="path143" d="M711.471 487.132C712.719 487.177 713.963 487.166 715.207 487.057C716.61 486.933 718.402 486.847 719.43 487.061C721.597 487.516 725.034 489.042 726.179 491.866C727.608 495.385 732.717 494.859 726.663 508.2C719.816 523.3 711.808 518.355 711.698 518.017C711.588 517.675 707.739 505.225 707.739 505.225C707.739 505.225 702.953 509.948 703.032 509.737C703.108 509.534 696.51 486.595 711.471 487.132" fill="#0E2E35"/>
<path id="path145" d="M710.803 520.151L710.005 526.058C710.005 526.058 708.217 534.571 710.516 536.21C712.815 537.853 720.297 525.817 720.297 525.817L719.507 510.845L710.803 520.151" fill="#F7A491"/>
<path id="path147" d="M719.759 515.698C717.861 520.804 713.335 523.94 710.125 525.158L710.802 520.15L719.506 510.844L719.759 515.698" fill="#F47458"/>
<path id="path149" d="M716.904 493.919C712.62 491.475 707.149 493.585 705.539 498.168C704.839 500.161 704.068 502.684 703.474 505.492C702.041 512.245 704.287 519.506 707.372 520.089C710.458 520.675 719.827 517.904 721.993 508.343C723.328 502.439 721.396 496.48 716.904 493.919" fill="#F7A491"/>
<path id="path151" d="M719.574 508.673C719.287 510.166 720.047 511.568 721.272 511.801C722.497 512.03 723.722 511.008 724.009 509.511C724.3 508.019 723.54 506.62 722.315 506.387C721.09 506.154 719.861 507.176 719.574 508.673" fill="#F7A491"/>
<path id="path153" d="M722.315 506.385C722.315 506.385 718.485 505.938 718.035 503.212C717.589 500.486 714.776 493.91 708.114 493.699C701.452 493.485 715.158 490.777 715.63 490.954C716.103 491.135 721.782 493.221 721.782 493.221C721.782 493.221 724.796 498.433 724.803 498.884C724.811 499.339 724.448 504.092 724.448 504.092L722.315 506.385" fill="#0E2E35"/>
<path id="path155" d="M712.367 513.319L705.539 512.142C705.539 512.142 705.24 514.755 708.227 515.361C711.872 516.098 712.367 513.319 712.367 513.319Z" fill="white"/>
<path id="path157" d="M367.265 540.958C367.522 541.842 367.67 542.135 367.998 542.726C370.109 546.549 375.008 552.001 375.008 552.001L378.796 543.511C378.796 543.511 378.18 540.846 377.108 537.037C373.448 537.984 369.962 538.537 367.265 540.958Z" fill="#F8A492"/>
<path id="path159" d="M388.989 533.595C388.989 533.595 367.855 542.645 367.171 542.473C366.731 542.36 358.502 528.662 358.414 515.78C358.373 509.832 364.586 502.673 371.519 504.09C375.009 504.801 374.955 505.767 380.119 513.231C385.28 520.691 388.989 533.595 388.989 533.595" fill="#13375B"/>
<path id="path161" d="M407.032 695.876L406.529 704.148C406.344 705.197 405.618 707.784 405.618 708.739C405.618 712.318 422.708 705.701 418.878 704.114C418.534 703.971 416.715 702.885 416.602 701.666C416.428 699.79 415.982 695.993 415.982 695.993L407.032 695.876Z" fill="#F7A491"/>
<path id="path163" d="M418.836 704.079C418.836 704.079 414.825 705.173 412.768 705.448C410.715 705.722 408.004 703.418 406.552 704.038C404.949 704.722 405.013 710.892 405.013 710.892C405.013 710.892 426.531 712.648 432.58 710.832C434.977 710.11 427.041 706.629 418.836 704.079" fill="#DD513A"/>
<path id="path165" d="M372.071 695.876L371.567 704.148C371.382 705.197 370.656 707.784 370.656 708.739C370.656 712.318 387.745 705.701 383.915 704.114C383.571 703.971 381.216 702.072 381.102 700.854C380.925 698.978 381.019 695.993 381.019 695.993L372.071 695.876Z" fill="#F7A491"/>
<path id="path167" d="M383.873 704.081C383.873 704.081 379.862 705.175 377.806 705.449C375.751 705.724 373.042 703.419 371.588 704.039C369.988 704.723 369.925 710.894 369.925 710.894C369.925 710.894 391.541 712.939 397.621 710.833C399.98 710.014 392.078 706.63 383.873 704.081" fill="#DD513A"/>
<path id="path169" d="M377.294 545.535L392.347 524.566C392.411 524.382 392.547 524.006 392.755 523.43C393.515 521.351 395.092 517.023 396.464 512.714L396.479 512.669C396.91 511.161 397.825 508.537 398.714 505.995C399.697 503.171 400.918 499.667 400.96 499.069C400.922 498.968 400.85 498.783 400.756 498.539C400.204 497.114 399.459 493.723 399.194 492.249C399.028 491.309 398.858 489.022 399.981 489.022C401.746 489.022 400.907 491.305 401.72 492.73C402.018 491.775 402.623 489.887 402.945 487.977L403.24 483.518C403.296 483.183 402.937 480.724 404.174 480.724H404.234C405.346 480.807 405.323 483.42 405.784 487.842C405.932 487.334 406.075 486.721 406.185 486.157C406.174 485.853 406.397 484.526 406.563 483.822C406.34 482.589 406.469 480.645 407.788 480.829C408.45 480.923 408.397 483.634 408.397 483.634C408.389 484.007 408.352 486.876 408.371 487.44C408.507 486.481 409.036 482.375 410.072 482.375C410.93 482.375 410.998 483.48 410.979 484.353C410.968 484.871 410.431 489.316 410.401 489.835C410.805 489.162 411.286 485.24 411.683 485.24C413.358 485.24 412.753 490.812 412.14 492.264C412.08 492.414 412.019 492.704 411.947 493.042C411.739 494.035 411.388 495.697 410.514 497.185C409.463 498.975 408.011 501.818 407.792 502.254C407.629 503.141 407.123 506.337 406.491 510.353C406.219 512.075 405.924 513.959 405.614 515.91H405.595C405.539 516.331 405.225 517.674 404.034 522.716C402.404 529.615 402.238 529.912 402.166 530.04C401.459 531.285 385.227 553.206 384.535 554.134L384.131 554.687L377.294 545.535" fill="#F7A491"/>
<path id="path171" d="M405.294 496.629C405.294 496.629 404.072 493.519 401.895 493.516C401.895 493.516 403.112 493.08 404.152 493.899C405.195 494.719 405.294 496.629 405.294 496.629" fill="#F47458"/>
<path id="path173" d="M373.658 490.625L371.72 502.811C371.72 502.811 379.102 508.707 383.409 507.462C387.02 506.421 384.543 501.725 384.543 501.725C384.543 501.725 382.619 495.22 383.209 491.809C383.798 488.399 373.658 490.625 373.658 490.625Z" fill="#F7A491"/>
<path id="path175" d="M375.049 494.31C376.899 495.178 380.558 496.363 383.405 496.652C383.133 494.945 382.978 493.141 383.208 491.809C383.481 490.234 381.465 489.862 379.219 489.918C376.279 490.166 373.658 490.625 373.658 490.625L373.285 492.968C373.844 493.554 374.432 494.02 375.049 494.31" fill="#FE875E"/>
<path id="path177" d="M364.34 476.565C364.035 476.569 367.259 490.18 372.247 492.522C377.235 494.865 384.676 493.643 386.071 489.977C387.613 485.924 381.984 472.034 374.966 470.267C367.951 468.503 364.34 476.565 364.34 476.565" fill="#F7A491"/>
<path id="path179" d="M370.113 464.061C366.128 466.343 364.3 469.735 363.684 471.122C361.814 472.006 359.551 473.912 358.465 479.056C357.13 485.38 361.878 490.257 366.912 491.723C371.946 493.19 372.724 496.502 372.724 496.502L373.295 492.938C373.295 492.938 372.175 489.832 370.491 488.279C368.807 486.726 371.289 484.463 371.507 482.613C371.675 481.192 370.622 478.432 370.85 476.097C370.85 476.097 373.647 471.882 376.405 470.84C381.107 469.066 375.225 461.128 370.113 464.061" fill="#13375B"/>
<path id="path181" d="M372.232 484.985C372.884 486.557 372.617 488.117 371.637 488.47C370.656 488.824 369.332 487.835 368.681 486.263C368.028 484.692 368.295 483.131 369.276 482.778C370.256 482.424 371.58 483.413 372.232 484.985Z" fill="#F7A491"/>
<path id="path183" d="M390.812 545.874L419.85 541.166C419.85 541.166 416.545 532.894 415.366 532.894C414.186 532.894 393.41 541.911 393.41 541.911L391.757 545.212L390.812 545.874" fill="#F8A492"/>
<path id="path185" d="M375.942 565.668C375.942 565.668 373.045 579.592 374.226 590.15C375.406 600.708 375.499 638.217 375.499 638.217L370.995 698.227L381.682 698.46C381.682 698.46 394.355 638.477 394.121 640.015C393.883 641.556 398.367 597.782 398.367 597.782L383.258 564.349L375.942 565.668" fill="#184655"/>
<path id="path187" d="M378.773 565.006C378.773 565.006 376.885 577.546 379.245 583.043C381.604 588.544 399.492 642.5 399.73 646.899C399.965 651.298 405.912 699.927 405.912 699.927L418.34 699.577L421.029 645.516L415.399 577.569L409.935 560.389L378.773 565.006Z" fill="#13375B"/>
<path id="path189" d="M371.72 502.81C371.72 502.81 374.785 504.81 377.643 504.577C380.501 504.348 384.543 501.723 384.543 501.723L383.98 499.832C383.98 499.832 376.587 498.76 376.4 498.873C376.214 498.99 371.72 502.81 371.72 502.81Z" fill="#F7A491"/>
<path id="path191" d="M404.382 532.484C404.382 532.484 415.366 542.79 420.323 541.034C425.28 539.271 427.333 533.259 415.234 524.456C404.409 516.579 404.382 532.484 404.382 532.484Z" fill="#F8A492"/>
<path id="path193" d="M411.822 545.213C410.193 536.384 398.366 508.917 397.424 503.86C396.963 501.397 390.585 501.345 384.512 501.664C378.094 502.003 371.72 502.811 371.72 502.811C371.72 502.811 366.039 503.74 363.539 506.067C361.04 508.399 360.376 514.839 363.969 527.063C366.805 536.715 370.321 542.017 372.061 549.044C372.414 551.405 372.715 553.729 373.115 556.448C373.755 566.961 373.108 580.846 373.108 580.846C373.108 580.846 404.034 587.227 415.6 577.549C415.6 577.549 413.494 554.256 411.822 545.213Z" fill="#355389"/>
<path id="path195" d="M419.709 526.23C419.709 526.23 407.572 536.191 406.865 536.191C406.408 536.191 389.548 523.858 385.658 513.725C383.506 508.122 388.017 501.858 393.174 501.877C396.747 501.892 398.335 502.806 405.417 508.746C412.499 514.683 419.709 526.23 419.709 526.23" fill="#466EB6"/>
<path id="blueGear" d="M437.946 301.02C430.312 315.139 412.609 320.433 398.408 312.838C384.21 305.246 378.887 287.642 386.524 273.519C394.158 259.4 411.861 254.106 426.062 261.702C440.259 269.293 445.583 286.897 437.946 301.02ZM469.691 306.558C466.722 304.566 463.686 302.678 460.76 300.629C460.223 300.253 459.754 299.298 459.811 298.659C460.197 294.553 460.82 290.469 461.176 286.36C461.282 285.164 461.554 284.536 462.707 284.089C466.768 282.509 470.791 280.821 474.825 279.167C475.479 278.9 476.122 278.61 477.252 278.121C475.324 271.966 473.419 265.875 471.468 259.634C466.273 260.66 461.535 261.514 456.843 262.563C455.187 262.931 454.287 262.739 453.221 261.217C451.043 258.096 448.43 255.283 446.086 252.275C445.727 251.813 445.572 250.88 445.78 250.346C447.375 246.237 448.967 242.123 450.808 238.123C451.693 236.205 451.251 235.171 449.523 234.28C448.857 233.934 448.317 233.355 447.719 232.881C444.736 231.283 441.753 229.689 438.766 228.095C438.392 228.019 437.995 228.004 437.647 227.862C434.006 226.38 434.705 226.41 432.637 229.433C430.119 233.114 427.661 236.84 425.506 240.059C419.925 239.54 414.715 239.055 409.331 238.555C407.293 233.633 405.161 228.493 403.021 223.319C396.449 224.199 390.411 226.256 384.486 229.05C385.511 234.129 386.498 239.081 387.519 244.03C387.704 244.917 387.647 245.455 386.774 246.105C383.348 248.654 379.983 251.29 376.742 254.065C375.808 254.866 375.207 254.87 374.203 254.449C370.061 252.719 365.878 251.08 361.729 249.365C360.698 248.94 360.03 248.97 359.267 249.974C355.843 254.471 353.508 259.502 351.592 264.766C351.213 265.807 351.717 266.259 352.508 266.77C356.168 269.135 359.77 271.59 363.446 273.929C364.506 274.602 364.829 275.185 364.618 276.546C363.886 281.246 363.43 285.991 362.824 291.101C358.327 292.943 353.224 295.034 348.123 297.125C348.997 303.783 350.792 309.946 353.758 315.819C359.325 314.68 364.741 313.574 369.646 312.574C372.705 316.079 375.464 319.414 378.429 322.553C379.549 323.742 379.749 324.636 379.095 326.103C377.348 330.009 375.755 333.984 374.142 337.947C373.823 338.729 373.195 339.639 374.425 340.286C379.428 342.914 384.426 345.542 389.424 348.166C390.491 348.727 391.16 348.37 391.803 347.373C394.196 343.67 396.756 340.064 399.085 336.323C399.985 334.879 400.953 334.822 402.457 335.025C406.182 335.522 409.932 335.946 413.683 336.033C415.298 336.071 415.891 336.488 416.436 337.917C418.19 342.508 420.122 347.031 421.948 351.487C425.952 351.487 436.86 348.088 440.793 345.655C439.764 340.771 438.774 335.815 437.647 330.893C437.363 329.664 437.73 329.133 438.679 328.393C441.734 326.001 444.619 323.396 447.651 320.974C448.162 320.568 449.198 320.343 449.78 320.568C453.478 322.008 457.126 323.576 460.775 325.144C462.813 326.024 463.633 326.385 464.416 325.862L472.957 310.063C472.98 308.777 472.091 308.171 469.691 306.558" fill="#9BA0C6"/>
<path id="bigBlueGear" d="M283.365 395.532C287.625 416.708 273.814 437.313 252.518 441.547C231.222 445.785 210.504 432.049 206.245 410.873C201.985 389.693 215.796 369.092 237.092 364.854C258.388 360.62 279.105 374.352 283.365 395.532ZM321.106 374.19C316.306 374.653 311.52 375.288 306.714 375.657C305.836 375.724 304.519 375.134 304.031 374.42C300.887 369.829 298.007 365.057 294.832 360.485C293.908 359.158 293.65 358.274 294.461 356.823C297.316 351.717 300.032 346.532 302.796 341.373C303.243 340.535 303.662 339.685 304.413 338.215C297.098 333.466 289.865 328.77 282.45 323.957C277.942 329.454 273.764 334.383 269.795 339.478C268.396 341.275 267.295 341.847 264.872 341.17C259.92 339.79 254.778 339.098 249.748 337.978C248.977 337.805 248.013 336.97 247.766 336.233C245.878 330.608 243.977 324.979 242.438 319.253C241.7 316.508 240.351 315.813 237.785 316.362C236.799 316.572 235.736 316.429 234.708 316.448C230.232 317.335 225.756 318.227 221.28 319.118C220.827 319.362 220.399 319.685 219.916 319.836C214.857 321.404 215.612 320.836 216.073 325.739C216.636 331.714 217.299 337.677 217.837 342.858C211.598 347.081 205.767 351.029 199.745 355.105C193.383 351.736 186.736 348.216 180.045 344.671C173.982 351.19 169.488 358.481 165.749 366.437C171.196 370.836 176.495 375.142 181.825 379.402C182.782 380.169 183.189 380.774 182.842 382.195C181.485 387.764 180.268 393.378 179.299 399.021C179.019 400.649 178.399 401.168 176.995 401.589C171.199 403.323 165.444 405.195 159.655 406.955C158.217 407.395 157.551 407.997 157.624 409.689C157.95 417.28 159.868 424.495 162.421 431.594C162.927 433 163.839 433.038 165.102 432.895C170.943 432.226 176.801 431.7 182.637 430.993C184.319 430.79 185.156 431.117 186.111 432.707C189.41 438.216 193.032 443.532 196.813 449.353C193.733 455.106 190.24 461.629 186.747 468.153C193.4 474.319 200.582 479.185 208.732 482.753C213.53 476.82 218.197 471.048 222.425 465.822C228.628 466.852 234.369 467.957 240.158 468.687C242.346 468.965 243.325 469.724 243.91 471.807C245.469 477.35 247.245 482.836 248.991 488.329C249.336 489.412 249.471 490.897 251.305 490.517C258.763 488.976 266.223 487.442 273.681 485.896C275.267 485.569 275.656 484.625 275.465 483.042C274.752 477.15 274.299 471.228 273.487 465.352C273.174 463.084 274.13 462.204 275.869 461.125C280.164 458.467 284.427 455.707 288.393 452.594C290.102 451.252 291.079 451.184 292.878 452.199C298.66 455.47 304.571 458.516 310.31 461.584C314.467 458.166 322.86 445.326 324.845 439.449C319.558 435.253 314.256 430.955 308.837 426.808C307.481 425.77 307.406 424.905 307.75 423.33C308.859 418.239 309.607 413.073 310.664 407.966C310.842 407.109 311.724 405.992 312.524 405.729C317.607 404.067 322.749 402.582 327.889 401.097C330.763 400.266 331.926 399.943 332.288 398.732L327.523 375.04C326.434 373.687 324.99 373.814 321.106 374.19" fill="#7178B8"/>
<path id="whiteGear" d="M268.098 282.716C267.968 282.716 267.824 282.689 267.662 282.633C264.486 281.535 261.311 280.43 258.135 279.328C257.354 279.057 257.641 278.467 257.759 277.978C258.352 275.504 258.932 273.026 259.608 270.575C259.861 269.653 259.664 269.146 258.899 268.548C256.874 266.965 254.953 265.25 252.84 263.457C250.045 264.483 246.96 265.615 243.789 266.777C241.518 263.585 239.91 260.122 238.799 256.287C241.611 254.602 244.424 252.921 246.902 251.44C246.801 248.383 246.643 245.552 246.651 242.721C246.653 241.905 246.411 241.589 245.728 241.288C243.357 240.239 241.019 239.115 238.655 238.047C238.144 237.818 237.806 237.596 237.936 236.953C238.59 233.689 239.512 230.523 241.122 227.572C241.38 227.102 241.655 226.929 242.029 226.929C242.175 226.929 242.335 226.955 242.515 226.996C245.108 227.639 247.715 228.23 250.306 228.88C250.498 228.929 250.665 228.959 250.817 228.959C251.161 228.959 251.433 228.812 251.764 228.429C253.42 226.511 255.162 224.661 256.947 222.86C257.403 222.398 257.387 222.078 257.199 221.571C256.155 218.754 255.131 215.931 254.073 213.035C257.306 210.866 260.671 209.121 264.455 208.02C266.18 210.873 267.893 213.705 269.533 216.419C272.743 216.235 275.852 216.058 279.178 215.867C280.157 213.784 281.268 211.377 282.419 208.986C283.028 207.726 283.072 207.294 283.635 207.294C283.945 207.294 284.414 207.425 285.222 207.621C285.349 207.651 285.484 207.655 285.619 207.655C285.641 207.655 285.662 207.655 285.684 207.655C285.709 207.655 285.733 207.655 285.757 207.655C285.806 207.655 285.854 207.655 285.902 207.655C287.8 208.332 289.698 209.005 291.596 209.678C291.99 209.903 292.359 210.197 292.781 210.339C293.878 210.712 294.229 211.279 293.882 212.486C293.158 215.002 292.592 217.562 292.022 220.115C291.948 220.454 292.122 220.984 292.375 221.225C294.023 222.785 295.812 224.21 297.371 225.849C297.838 226.338 298.224 226.541 298.669 226.541C298.951 226.541 299.257 226.462 299.622 226.319C302.287 225.285 304.996 224.364 307.957 223.3C309.666 226.797 311.332 230.207 313.017 233.659C312.397 234.046 312.044 234.272 311.684 234.49C309.46 235.817 307.247 237.167 305 238.457C304.362 238.821 304.258 239.216 304.304 239.927C304.463 242.375 304.464 244.83 304.606 247.281C304.627 247.657 304.991 248.18 305.339 248.353C307.243 249.301 309.199 250.139 311.123 251.049C312.679 251.782 313.255 252.06 313.358 252.82L309.753 262.867C309.579 263.025 309.388 263.088 309.131 263.088C308.774 263.088 308.289 262.961 307.548 262.769C305.262 262.167 302.976 261.569 300.672 261.051C300.621 261.039 300.565 261.036 300.507 261.036C300.15 261.036 299.683 261.235 299.457 261.479C297.892 263.171 296.429 264.961 294.846 266.638C294.356 267.157 294.187 267.499 294.464 268.198C295.568 270.992 296.595 273.816 297.638 276.598C295.545 278.377 289.436 281.343 287.082 281.697C285.609 279.241 284.066 276.752 282.624 274.211C282.255 273.56 281.929 273.312 281.296 273.312C281.158 273.312 281.006 273.323 280.836 273.346C278.624 273.628 276.38 273.71 274.146 273.748C273.242 273.763 272.678 273.883 272.279 274.812C271.245 277.219 270.064 279.565 268.989 281.956C268.77 282.441 268.507 282.716 268.098 282.716V282.716ZM275.611 227.534C268.48 227.534 261.794 231.941 259.26 239.002C256.037 247.981 260.745 257.858 269.775 261.062C271.704 261.746 273.673 262.073 275.61 262.073C282.741 262.073 289.426 257.67 291.961 250.605C295.184 241.626 290.476 231.749 281.446 228.542C279.517 227.861 277.548 227.534 275.611 227.534" fill="#9BA0C6"/>
<path id="path203" d="M280.56 708.193L274.846 708.171C275.6 683.377 276.264 645.721 275.004 643.612C275.008 643.615 275.088 643.747 275.384 643.894L280.021 642.69C280.771 643.066 281.223 643.292 281.379 653.835C281.46 659.261 281.429 666.754 281.288 676.106C281.048 692.025 280.565 708.032 280.56 708.193Z" fill="#355389"/>
<path id="path205" d="M297.301 707.889H258.754C256.978 707.889 255.539 709.322 255.539 711.089C255.539 711.397 255.791 711.645 256.101 711.645H299.954C300.264 711.645 300.516 711.397 300.516 711.089C300.516 709.322 299.077 707.889 297.301 707.889Z" fill="#355389"/>
<path id="path207" d="M279.937 704.738H275.215C273.818 704.738 272.685 705.863 272.685 707.254C272.685 708.641 273.818 709.769 275.215 709.769H279.937C281.334 709.769 282.466 708.641 282.466 707.254C282.466 705.863 281.334 704.738 279.937 704.738Z" fill="#355389"/>
<path id="path209" d="M143.268 711.572V598.55H140.987V711.572H143.268Z" fill="#13375B"/>
<path id="path211" d="M258.225 536.017C258.015 530.994 258.759 526.035 261.019 521.357C262.963 517.334 267.774 515.052 272.161 515.044C286.093 515.029 287.864 533.333 296.732 540.394C299.442 542.548 302.47 544.308 305.035 546.632C314.502 555.223 310.238 571.128 301.544 578.66C295.511 583.886 286.03 586.856 278.594 582.769C274.713 580.637 271.766 577.092 269.667 573.208C266.688 567.695 264.768 561.333 262.649 555.457C260.393 549.204 258.503 542.695 258.225 536.017" fill="#13375B"/>
<path id="path213" d="M219.792 588.652L250.106 580.244C250.106 580.244 256.494 571.713 264.71 560.268C267.397 562.911 268.89 566.975 271.596 569.592L251.529 591.667C250.805 592.461 249.777 592.919 248.698 592.923L220.84 593.013L211.307 593.769V587.701L219.792 588.652" fill="#F48C7F"/>
<path id="path215" d="M263.435 582.25C263.435 582.25 273.839 571.639 276.516 567.03C279.194 562.42 274.694 565.424 270.096 564.21C268.356 563.751 268.796 553.606 265.505 556.904C260.106 562.315 253.318 571.775 253.318 571.775L263.435 582.25Z" fill="#96D9C9"/>
<path id="path217" d="M278.226 552.249C278.226 552.249 287.564 550.417 291.825 553.956C296.085 557.497 290.912 588.969 290.916 594.188C290.921 599.406 293.842 614.146 293.842 614.146C293.842 614.146 265.542 619.071 261.047 611.239C261.047 611.239 259.768 581.4 259.958 577.647C260.148 573.895 264.344 558.547 265.504 556.903C266.664 555.26 278.226 552.249 278.226 552.249" fill="#50BFA5"/>
<path id="path219" d="M278.286 537.887C278.286 537.887 278.335 538.165 278.423 538.635C278.847 540.902 280.477 548.422 281.579 550.486C282.91 552.987 277.021 560.95 271.353 559.98C269.665 559.691 272.779 552.66 272.629 551.915C272.343 550.49 271.954 548.546 271.557 546.55C271.333 545.425 271.105 544.286 270.892 543.215C270.286 540.169 269.792 537.676 269.792 537.676L278.286 537.887" fill="#F7A491"/>
<path id="path221" d="M278.423 538.634C278.335 538.164 278.286 537.886 278.286 537.886L269.792 537.675C269.792 537.675 270.286 540.168 270.892 543.214C271.104 544.278 271.33 545.413 271.553 546.53C272.865 546.342 274.235 545.707 275.609 544.515C277.107 543.214 278.088 541.65 278.681 539.98C278.576 539.446 278.489 538.988 278.423 538.634" fill="#F47458"/>
<path id="path223" d="M272.569 518.727C272.569 518.727 276.573 518.268 279.082 521.487C281.592 524.709 284.297 534.673 278.062 540.088C271.829 545.502 265.669 539.373 264.755 532.872C263.842 526.371 263.487 518.49 272.569 518.727Z" fill="#F7A491"/>
<path id="path225" d="M262.91 532.778C263.654 534.215 264.903 535.008 265.7 534.553C266.497 534.098 266.539 532.564 265.795 531.128C265.051 529.695 263.802 528.898 263.005 529.353C262.209 529.808 262.166 531.342 262.91 532.778Z" fill="#F7A491"/>
<path id="path227" d="M272.12 517.663C272.12 517.663 277.468 527.135 281.295 527.571C285.121 528.011 285.624 533.045 285.624 533.045C285.624 533.045 284.256 521.446 280.468 519.208C276.679 516.971 272.12 517.663 272.12 517.663Z" fill="#13375B"/>
<path id="path229" d="M280.292 529.954C279.98 531.635 280.607 533.177 281.689 533.398C282.773 533.62 283.903 532.436 284.214 530.751C284.526 529.071 283.9 527.529 282.817 527.307C281.733 527.085 280.603 528.27 280.292 529.954Z" fill="#F7A491"/>
<path id="path231" d="M244.294 685.975C244.294 685.975 252.884 696.217 252.94 697.109C252.997 698 252.599 707.727 251.578 708.618C250.556 709.509 247.555 710.141 248.52 711.145C249.249 711.9 254.859 711.739 258.577 711.536C259.663 711.476 261.023 702.865 261.453 701.598C262.078 699.759 263.596 695.62 263.028 694.337C262.752 693.713 261.429 692.431 259.564 691.235C257.603 689.976 250.102 679.594 250.102 679.594L244.294 685.975Z" fill="#F48C7F"/>
<path id="path233" d="M259.444 691.17C259.444 691.17 253.676 707.323 251.418 708.101C250.819 708.308 247.942 708.834 247.399 710.098C247.236 710.481 247.399 711.752 247.399 711.752H259.422C259.422 711.752 260.942 704.638 261.543 701.51C261.543 701.51 264.726 693.873 264.372 693.178C264.019 692.482 259.444 691.17 259.444 691.17" fill="#B75742"/>
<path id="path235" d="M192.841 690.893C192.841 690.893 185.826 700.714 186.443 703.82C186.774 705.485 188.245 707.662 187.401 709.226C186.557 710.794 185.591 711.185 185.591 711.185L163.709 711.535C162.518 711.554 163.305 710.791 164.266 710.091C165.839 708.944 167.109 708.185 172.134 705.771C172.462 705.613 173.655 704.861 174.085 704.602C175.176 703.94 176.272 702.898 177.215 701.857C178.786 700.12 185.695 685.975 185.695 685.975L192.841 690.893" fill="#F7A491"/>
<path id="path237" d="M174.088 704.598C179.876 706.072 184.153 705.072 186.546 704.113C187.163 705.851 187.982 708.028 187.548 709.283C187.016 710.821 186.26 711.167 185.592 711.186C180.306 711.321 166.229 711.509 162.198 711.562C161.636 711.569 161.325 710.915 161.687 710.487C162.687 709.302 173.657 704.862 174.088 704.598Z" fill="#B75742"/>
<path id="path239" d="M218.215 630.306C218.215 630.306 226.901 640.164 229.116 641.725C231.332 643.289 252.593 682.224 252.593 682.224L245.018 687.721C245.018 687.721 226.017 664.161 217.093 651.557C209.547 640.901 212.327 641.578 207.89 635.088C205.447 631.52 206 626.689 209.222 623.793C209.622 623.432 210.058 623.056 210.531 622.665C217.099 617.221 262.12 611.096 262.12 611.096L290.916 613.897C290.916 613.897 267.389 630.306 266.511 630.742C265.633 631.178 234.021 635.765 233.362 635.765C232.703 635.765 218.215 630.306 218.215 630.306" fill="#B75742"/>
<path id="path241" d="M293.842 614.147C293.842 614.147 298.781 628.886 291.372 635.763C283.963 642.636 239.948 641.873 225.459 641.873C225.459 641.873 219.532 658.03 218.873 660.647C218.215 663.267 189.456 697.107 189.456 697.107L181.553 692.084C181.553 692.084 212.506 632.27 214.921 629.649C217.336 627.029 251.802 616.549 260.364 614.147C268.925 611.748 293.842 614.147 293.842 614.147" fill="#F47458"/>
<path id="path243" d="M236.57 587.639L262.854 581.856C262.854 581.856 272.36 569.707 281.489 559.255C284.176 561.902 285.669 565.962 288.374 568.579L268.307 590.654C267.584 591.452 266.556 591.906 265.477 591.91L237.619 592L228.086 592.756V586.691L236.57 587.639" fill="#F7A491"/>
<path id="path245" d="M280.212 581.241C280.212 581.241 290.616 570.63 293.293 566.024C295.97 561.414 293.985 553.691 289.388 552.477C284.791 551.266 270.095 570.765 270.095 570.765L280.212 581.241Z" fill="#96D9C9"/>
<path id="path247" d="M182.572 557.881H225.921C227.068 557.881 228.101 558.573 228.536 559.626L241.884 591.999H265.782C266.45 591.999 266.992 592.541 266.992 593.202C266.992 593.868 266.45 594.406 265.782 594.406H197.765C195.895 594.406 194.199 593.315 193.433 591.616L179.993 561.844C179.154 559.983 180.522 557.881 182.572 557.881Z" fill="#B75742"/>
<path id="path249" d="M205.91 576.735C206.203 578.19 207.479 579.16 208.759 578.908C210.04 578.653 210.84 577.269 210.548 575.814C210.255 574.359 208.979 573.385 207.699 573.641C206.418 573.896 205.618 575.28 205.91 576.735Z" fill="white"/>
<path id="path251" d="M270.351 599.867H140.84C139.324 599.867 138.095 598.645 138.095 597.137C138.095 595.629 139.324 594.407 140.84 594.407H270.351C271.867 594.407 273.096 595.629 273.096 597.137C273.096 598.645 271.867 599.867 270.351 599.867Z" fill="#184655"/>
<path id="path253" d="M270.16 536.506L276.033 536.205C276.033 536.205 276.014 538.431 273.435 538.638C270.29 538.89 270.16 536.506 270.16 536.506" fill="white"/>
<path id="path255" d="M251.784 643.384L254.437 632.405C256.291 624.727 263.129 619.14 271.065 618.82L304.659 617.47L305.696 614.067L270.929 615.466C261.492 615.846 253.361 622.49 251.155 631.619L248.336 643.286C249.291 643.328 250.455 643.361 251.784 643.384" fill="#355389"/>
<path id="path257" d="M296.844 637.537C296.844 637.537 250.69 638.323 245.878 637.537C241.067 636.752 238.984 642.749 240.421 645.892C241.857 649.036 245.807 650.25 251.624 650.536C257.441 650.822 305.845 652.179 307.21 650.893C308.324 649.84 322.998 599.952 328.337 581.709C329.404 578.062 327.3 574.253 323.636 573.181C319.988 572.117 316.16 574.178 315.057 577.795L296.844 637.537Z" fill="#184655"/>
<path id="path259" d="M270.361 711.572V598.55H268.08V711.572H270.361Z" fill="#13375B"/>
<path id="path261" d="M269.792 605.866H140.987V607.081H269.792V605.866Z" fill="#13375B"/>
<path id="flag3" d="M613.302 54.7151C613.302 54.7151 630.036 65.4875 671.279 64.0211C671.279 64.0211 627.076 80.6253 609.789 83.1934L602.677 55.2528L613.302 54.7151" fill="#EC4962"/>
<path id="flag2" d="M621.19 68.7851C621.19 68.7851 617.814 76.651 609.79 83.1934L606.085 68.6309L606.323 61.5884L621.19 68.7851" fill="#B75742"/>
<path id="flag1" d="M557.586 38.7756C557.586 38.7756 605.907 35.5306 613.424 38.2754L621.19 68.7841C621.19 68.7841 593.687 66.4341 566.891 75.3228L557.586 38.7756" fill="#EC4962"/>
<path id="path269" d="M528.476 378.853C528.476 378.853 526.151 382.632 526.359 383.753C526.57 384.869 529.368 396.717 530.911 397.499C532.454 398.285 536.359 398.131 535.482 399.669C534.82 400.83 527.841 402.376 523.183 403.282C521.821 403.545 517.432 393.329 516.502 391.9C515.152 389.825 511.976 385.181 512.275 383.422C512.418 382.564 513.651 380.568 515.575 378.507C517.602 376.342 519.039 372.292 519.039 372.292L528.476 378.853Z" fill="#F48C7F"/>
<path id="path271" d="M562.286 377.774L561.5 386.268C561.605 387.55 561.571 390.795 561.855 391.916C562.929 396.123 580.023 383.542 575.274 382.756C574.843 382.685 573.285 381.643 572.793 380.245C572.037 378.086 573.134 374.868 573.134 374.868L562.286 377.774Z" fill="#F7A491"/>
<path id="path273" d="M555.356 225.496C555.356 225.496 560.294 239.081 560.347 239.291C566.087 261.832 581.789 304.73 582.012 309.186C582.56 320.045 573.55 378.426 573.55 378.426L561.054 380.039L560.782 312.927L548.498 288.979L527.483 240.818L555.356 225.496" fill="#7178B8"/>
<path id="path275" d="M517.795 248.071L518.854 261.856L526.469 317.782L516.287 376.874C516.287 376.874 521.591 383.766 526.786 383.612L550.633 319.568L556.304 243.875L551.533 228.576L517.795 248.071" fill="#9BA0C6"/>
<path id="path277" d="M515.708 378.395C515.708 378.395 527.913 396.555 530.949 396.815C531.754 396.886 535.475 396.638 536.541 398.033C536.862 398.454 537.543 400.556 537.543 400.556L522.23 404.936C522.23 404.936 518.09 395.499 516.366 391.822C516.366 391.822 510.033 383.373 510.248 382.407C510.467 381.44 515.708 378.395 515.708 378.395Z" fill="#13375B"/>
<path id="path279" d="M561.095 394.07L561.564 386.167C561.564 386.167 566.642 386.941 568.854 386.043C571.065 385.14 575.213 382.727 575.213 382.727C585.131 383.418 593.003 382.986 592.25 385.738L561.095 394.07Z" fill="#13375B"/>
<path id="path281" d="M584.794 179.651L591.4 184.689C592.67 183.715 595.453 179.606 597.257 178.327L591.222 171.781C590.727 171.42 590.458 170.822 590.519 170.213C590.56 169.785 590.621 169.375 590.685 169.206C590.87 168.687 591.041 168.07 591.23 167.551C591.415 167.036 590.171 165.994 589.517 165.81C588.863 165.626 588.643 168.119 588.36 168.86C587.505 171.097 586.477 177.222 586.277 178.237L584.794 179.651" fill="#F48C7F"/>
<path id="path283" d="M592.115 184.049C590.258 182.083 587.642 180.978 585.699 178.932L556.392 198.999C556.392 198.999 533.733 172.356 521.43 181.797C526.814 190.814 533.306 199.454 536.648 203.571C544.172 212.836 555.663 217.258 557.905 216.231C560.43 215.081 591.453 184.843 592.115 184.049" fill="#13375B"/>
<path id="path285" d="M463.928 117.35C464.9 119.918 466.575 123.96 466.575 123.96C466.62 125.118 466.862 129.942 467.169 135.857L475.415 131.364C475.415 131.364 474.148 121.825 474.466 121.193C474.734 120.659 475.358 121.208 477.555 117.11C478.186 115.925 478.092 113.959 478.092 113.959C478.092 113.959 477.96 111.541 477.392 111.383C476.822 111.225 476.243 111.658 476.099 112.094C475.952 112.534 476.122 113.492 475.975 113.932C475.827 114.369 474.636 115.019 474.107 115.057C473.574 115.094 473.309 107.954 473.309 107.954C473.309 107.954 473.358 105.912 473.426 105.236C473.487 104.664 473.801 102.961 473.801 102.961C473.801 102.961 474.111 100.509 473.347 100.415C472.893 100.363 472.012 102.431 471.498 104.574C470.942 106.882 470.761 109.281 470.522 109.281C469.959 109.274 469.781 105.36 469.781 105.36C469.781 105.36 470.114 103.517 470.001 102.679C470.394 101.592 470.511 99.6444 469.573 99.5956C469.399 99.588 468.488 102.152 468.488 102.152C468.488 102.152 468.22 103.916 468.038 104.743C467.721 106.209 467.917 108.435 467.781 109.443C467.668 110.281 467.437 109.973 467.354 110.015C467.29 110.052 467.271 108.913 467.218 107.356C467.191 106.57 466.995 105.683 467.104 104.773C467.206 103.931 467.18 102.743 467.146 102.028C467.051 100.005 465.808 100.363 465.592 102.25C465.509 102.968 465.426 103.75 465.342 104.544C465.029 107.634 465.399 110.53 465.078 110.59C464.658 110.672 464.295 105.367 464.295 105.367C464.295 105.367 463.289 102.525 462.976 105.311C462.609 108.544 462.998 111.101 463.021 111.21C463.184 111.97 462.96 114.782 463.928 117.35" fill="#F8A492"/>
<path id="path287" d="M521.785 141.891C521.785 141.891 516.809 137.796 513.947 143.85C513.947 143.85 511.028 142.654 509.44 145.602C509.44 145.602 504.324 144.718 504.018 152.204C504.018 152.204 501.421 152.035 501.451 155.077C501.481 158.123 503.258 159.939 503.258 159.939C503.258 159.939 501.961 161.176 502.944 163.86C503.78 166.139 505.78 166.263 505.78 166.263C505.78 166.263 506.786 170.158 508.657 171.14C510.529 172.125 512.809 171.271 512.809 171.271C512.809 171.271 513.694 173.339 515.683 172.907C517.675 172.474 519.936 170.267 522.292 170.854C524.651 171.44 530.39 169.831 530.39 169.831C530.39 169.831 536.603 166.135 533.824 159.694C533.824 159.694 536.901 156.182 533.427 152.825C533.427 152.825 534.924 146.745 530.145 143.835C525.366 140.928 521.785 141.891 521.785 141.891" fill="#F47458"/>
<path id="path289" d="M535.858 183.964L525.736 178.79C525.736 178.79 516.745 180.091 515.63 180.227C514.514 180.362 512.416 222.019 512.238 237.623C512.06 253.227 513.977 255.757 513.977 255.757C513.977 255.757 528.629 257.228 539.068 255.028C549.923 252.742 561.549 245.365 561.549 245.365C561.549 245.365 548.581 216.981 545.598 207.99C542.618 199 535.858 183.964 535.858 183.964Z" fill="#F7CC7F"/>
<path id="path291" d="M516.029 180.126L482.791 153.701C482.791 153.701 475.218 125.843 474.794 124.809C474.378 123.794 466.96 124.113 463.962 124.181C463.001 124.203 468.136 154.321 470.17 159.228C472.575 165.026 498.266 189.665 498.266 189.665C498.266 189.665 504.078 203.987 504.433 214.962C505.023 233.191 503.718 258.518 504.588 259.203C509.764 261.639 528.261 259.74 529.202 257.729C539.588 235.514 516.029 180.126 516.029 180.126" fill="#13375B"/>
<path id="path293" d="M524.859 173.378L526.375 179.173C526.375 179.173 529.196 187.445 527.093 189.358C524.991 191.272 516.045 180.173 516.045 180.173L515.021 165.152L524.859 173.378Z" fill="#F7A491"/>
<path id="path295" d="M515.354 170.015C517.875 174.877 522.783 177.464 526.144 178.291L524.859 173.377L515.021 165.15L515.354 170.015" fill="#F47458"/>
<path id="path297" d="M501.541 156.475C501.817 158.749 503.341 160.438 504.944 160.242C506.547 160.05 507.625 158.05 507.349 155.779C507.073 153.504 505.545 151.816 503.942 152.012C502.339 152.203 501.265 154.204 501.541 156.475Z" fill="#F47458"/>
<path id="path299" d="M509.175 146.584C509.334 147.889 511.047 148.757 512.998 148.524C514.949 148.287 516.401 147.039 516.242 145.731C516.083 144.426 514.37 143.557 512.419 143.79C510.468 144.027 509.016 145.276 509.175 146.584Z" fill="#F47458"/>
<path id="path301" d="M518.43 148.828C522.903 146.666 528.257 149.152 529.554 153.855C530.117 155.897 530.715 158.48 531.115 161.334C532.076 168.2 529.312 175.325 526.17 175.705C523.028 176.081 513.802 172.674 512.301 162.943C511.371 156.935 513.734 151.096 518.43 148.828" fill="#F7A491"/>
<path id="path303" d="M514.711 163.436C514.896 164.955 514.034 166.309 512.786 166.459C511.538 166.609 510.374 165.5 510.192 163.981C510.007 162.462 510.869 161.112 512.117 160.962C513.365 160.812 514.525 161.921 514.711 163.436Z" fill="#F7A491"/>
<path id="path305" d="M531.622 143.769C535.18 145.934 536.791 149.679 535.218 152.138C533.649 154.594 529.494 154.831 525.936 152.665C522.382 150.499 520.771 146.75 522.34 144.295C523.913 141.836 528.068 141.603 531.622 143.769Z" fill="#F47458"/>
<path id="path307" d="M523.395 146.884C523.531 147.993 522.291 149.057 520.628 149.256C518.964 149.455 517.505 148.718 517.368 147.609C517.232 146.496 518.473 145.432 520.136 145.233C521.8 145.034 523.259 145.771 523.395 146.884Z" fill="#F47458"/>
<path id="path309" d="M533.4 154.355C533.574 155.784 532.564 157.077 531.143 157.25C529.725 157.42 528.432 156.401 528.258 154.972C528.084 153.543 529.093 152.25 530.515 152.077C531.933 151.907 533.226 152.926 533.4 154.355Z" fill="#F47458"/>
<path id="path311" d="M544.297 190.162C544.297 190.162 558.347 223.19 563.345 234.831C563.886 236.091 566.604 244.325 566.703 245.145C566.926 246.968 559.224 250.243 558.26 250.221C557.398 250.202 546.085 215.32 539.514 198.374C537.283 192.632 534.02 187.346 529.876 182.774L526.681 180.153L526.375 179.172C526.375 179.172 540.644 180.435 544.297 190.162" fill="#13375B"/>
<path id="path313" d="M614.652 257.663L612.134 258.294L554.86 33.3486L557.382 32.7131L614.652 257.663" fill="#13375B"/>
<path id="path315" d="M598.489 175.389C598.399 174.889 598.236 174.382 598.032 173.874C597.797 173.333 597.416 172.678 597.158 172.487C596.992 172.363 596.871 171.968 596.712 171.569C596.663 171.441 596.599 171.317 596.516 171.204L596.512 171.197C596.274 170.87 595.975 170.599 595.646 170.366C595.336 170.148 595.064 169.855 594.716 169.362C594.444 168.979 594.092 168.651 593.669 168.445C593.253 168.245 592.931 168.238 592.784 168.493C592.092 169.674 588.636 173.442 590.035 175.261C591.207 176.788 592.735 178.375 593.049 179.093C593.483 180.082 595.003 180.014 595.911 179.672C597.62 179.021 598.962 177.95 598.489 175.389" fill="#F7A491"/>
<path id="path317" d="M793.606 710.677H57.8489V713.271H793.606V710.677Z" fill="#184655"/>
<path id="path319" d="M546.939 131.753C547.075 131.445 547.547 131.392 547.774 131.625C548.137 132.001 548.508 132.37 548.874 132.742C549.687 133.565 549.695 133.622 549.816 133.603C550.107 133.558 550.118 133.035 550.103 132.843C550.069 132.415 549.929 131.994 549.982 131.561C550.092 130.719 550.871 130.287 551.57 130.851C552.209 131.369 552.822 131.926 553.43 132.486C553.476 131.565 553.499 130.644 553.559 129.726C553.582 129.399 553.914 129.256 554.172 129.456C554.739 129.899 556.425 131.208 556.981 131.64C557.125 131.753 557.729 132.351 557.907 132.242C558.062 132.144 558.051 131.501 558.066 131.358C558.153 130.572 558.195 130.294 558.539 127.737C558.58 127.433 559.049 127.29 559.249 127.527C561.227 129.881 561.526 129.636 561.707 130.339C561.745 130.497 561.616 130.602 561.469 130.587C561.087 130.55 561 130.516 560.013 129.565C559.756 129.32 559.507 129.068 559.265 128.813C558.909 131.926 558.894 132.719 558.111 132.952C557.567 133.114 557.476 132.945 554.296 130.46C554.293 131.426 554.236 132.388 554.194 133.355C554.179 133.723 553.782 133.896 553.499 133.663C551.219 131.798 551.238 131.659 550.992 131.546C550.984 131.546 550.988 131.377 550.95 131.618C550.882 132.028 551.272 132.911 550.984 133.652C550.731 134.306 550.013 134.806 549.317 134.464C548.912 134.268 548.803 134.069 547.585 132.904C547.222 133.652 546.772 134.355 546.205 135.051C545.959 135.351 545.759 135.517 545.392 135.648C545.09 135.757 544.734 135.438 544.833 135.13C545.116 134.25 545.91 134.039 546.939 131.753" fill="#F47458"/>
<path id="path321" d="M536.462 120.337C537.32 120.483 538.145 120.562 539.048 120.559C539.218 120.559 539.536 120.596 539.649 120.423C539.914 120.017 539.214 119.382 538.904 117.784C538.772 117.088 538.428 115.667 539.37 115.385C539.85 115.238 540.447 115.351 540.942 115.366C541.317 115.373 541.695 115.37 542.069 115.37C541.4 112.772 541.245 112.914 541.513 112.335C541.585 112.185 541.82 112.11 541.96 112.204C542.485 112.55 542.334 112.478 543.211 115.75C543.294 116.047 543.079 116.407 542.742 116.4C542.232 116.385 539.933 116.201 539.649 116.227L539.638 116.404C539.653 117.483 540.024 118.397 540.406 119.385C540.716 120.194 540.697 121.284 539.661 121.514C539.101 121.638 537.948 121.555 537.063 121.453C537.532 123.036 538.008 124.619 538.466 126.206C538.557 126.518 538.315 126.954 537.948 126.92C536.919 126.83 535.891 126.774 534.863 126.725C535.146 127.654 535.573 128.537 536.129 129.346C536.538 129.936 535.698 130.662 534.772 129.098C534.224 128.236 533.83 127.296 533.588 126.289C533.509 125.958 533.732 125.567 534.11 125.574C535.131 125.593 536.152 125.657 537.169 125.74C536.723 124.157 536.296 122.57 535.846 120.987C535.736 120.596 536.08 120.273 536.462 120.337" fill="#66CCB2"/>
<path id="path323" d="M512.566 111.512C512.268 111.504 512.086 111.309 512.045 111.027C511.841 109.632 511.761 108.259 512.041 106.864C512.188 106.142 513.247 106.413 513.149 107.124C512.994 108.233 512.892 109.38 512.998 110.504C513.826 110.485 514.642 110.391 515.451 110.196C515.758 110.12 516.158 110.327 516.136 110.688C516.083 111.583 515.777 114.971 515.739 115.001C515.746 114.997 515.769 114.993 515.826 115.005C516.181 115.076 517.402 114.824 517.958 114.858C518.578 114.899 518.775 115.734 518.809 116.242C518.873 117.268 518.102 118.4 518.461 119.404C518.809 120.37 520.34 119.306 521.478 120.096C522.359 120.705 522.053 121.727 521.694 123.344C521.603 123.743 521.512 124.13 521.115 124.326C521.021 124.374 520.877 124.382 520.798 124.292C520.367 123.795 520.59 123.213 520.881 121.735C520.915 121.547 521.036 121.227 520.903 121.058C520.465 120.494 519.172 121.299 518.128 120.622C517.315 120.096 517.198 119.062 517.33 118.186C517.436 117.501 517.86 116.655 517.637 115.956C517.047 115.986 516.449 116.035 515.86 116.02C515.217 116.005 514.778 115.666 514.748 115.012C514.71 114.286 514.835 113.534 514.892 112.809C514.93 112.324 514.964 111.839 515.009 111.354C514.2 111.481 513.387 111.538 512.566 111.512Z" fill="#07345A"/>
<path id="path325" d="M555.25 147.068C557.711 150.207 555.393 151.726 554.361 150.816C553.919 150.429 553.9 149.752 554.418 149.421C554.656 149.271 555.034 149.508 554.936 149.797C554.856 150.034 555.129 150.098 555.242 149.846C555.389 149.504 555.147 149.083 555 148.782C554.648 148.087 554.202 147.173 553.336 147.037C552.047 146.834 550.644 148.12 551.351 150.083C552.376 152.914 556.989 152.881 557.824 149.918C558.278 148.305 557.628 146.549 556.316 145.526C556.059 145.327 556.372 144.988 556.633 145.097C558.599 145.936 559.295 148.478 558.577 150.38C557.839 152.328 555.741 153.264 553.741 152.926C551.642 152.572 549.933 150.741 550.209 148.553C550.512 146.158 553.525 144.875 555.25 147.068" fill="#3C8F7C"/>
<path id="path327" d="M504.411 120.849C504.755 121.36 504.947 122.402 504.252 122.725C503.927 122.875 503.537 122.778 503.424 122.405C503.314 122.041 503.514 121.706 503.186 121.42C502.906 121.176 502.486 121.311 502.225 121.522C501.42 122.172 501.628 123.601 502.047 124.406C502.709 125.688 504.52 125.947 505.424 124.601C505.704 124.18 505.775 123.684 505.9 123.202C505.968 122.939 506.396 122.819 506.532 123.105C507.053 124.199 506.32 125.522 505.378 126.143C504.395 126.797 503.012 126.741 502.04 126.094C500.951 125.372 500.433 123.954 500.478 122.687C500.569 120.055 503.31 119.194 504.411 120.849" fill="#F7CC7F"/>
<path id="path329" d="M379.477 488.18C379.477 488.18 380.649 490.075 382.967 488.932C385.791 487.533 384.665 485.424 384.665 485.424L379.477 488.18" fill="white"/>
<path id="path331" d="M522.519 167.993C522.519 167.993 522.749 170.208 525.335 170.17C528.492 170.125 528.394 167.741 528.394 167.741L522.519 167.993Z" fill="white"/>
</g>
</g>
</svg>
