<svg width="52" height="52" viewBox="0 0 52 52" fill="none" xmlns="http://www.w3.org/2000/svg">
<g filter="url(#filter0_d)">
<path d="M30.8871 6.15987C30.8862 6.15686 30.9408 6.16668 31.0469 6.18862C31.1529 6.21055 31.2168 6.21692 31.4202 6.27272C31.6236 6.32828 31.7891 6.35405 32.0798 6.45124C32.3705 6.54846 32.624 6.61555 32.9916 6.76066C33.3592 6.90578 33.685 7.03335 34.1189 7.23128C34.5528 7.42921 34.8701 7.57933 35.3465 7.85814C35.8228 8.13695 36.2018 8.35256 36.703 8.71766C37.2043 9.0828 37.6155 9.38958 38.1242 9.84301C38.6328 10.2964 39.0438 10.71 39.543 11.2506C40.0422 11.7911 40.4045 12.2619 40.8483 12.9077C41.2923 13.5535 41.6546 14.1083 42.0205 14.847C42.3864 15.5857 42.7128 16.2322 42.9805 17.047C43.2483 17.8619 43.4668 18.6351 43.6611 19.4969C43.8555 20.3587 43.924 21.1701 43.9931 22.0693C44.0622 22.9686 44.0127 23.8198 43.9482 24.7302C43.8837 25.6405 43.7081 26.5077 43.5082 27.4012C43.3082 28.2948 43.0095 29.1545 42.6801 30.0038C42.3507 30.8531 41.9273 31.6784 41.4817 32.4588C41.0361 33.2392 40.4942 34.0028 39.9511 34.6941C39.408 35.3854 38.765 36.0665 38.147 36.6536C37.5291 37.2406 36.8086 37.828 36.1403 38.3008C35.472 38.7736 34.6996 39.2666 34.0064 39.6203C33.3132 39.974 32.5426 40.3227 31.8622 40.5909C31.1818 40.8592 30.358 41.1178 29.6983 41.2718C29.0387 41.4258 28.2865 41.5809 27.6748 41.6613C27.0631 41.7418 26.3497 41.8102 25.8004 41.8273C25.251 41.8445 24.6663 41.8379 24.191 41.829C23.7157 41.8202 23.1308 41.7522 22.7394 41.7055C22.348 41.6587 21.9207 41.5926 21.6192 41.5416C21.3176 41.4906 20.9807 41.4211 20.7751 41.3765C20.5695 41.3318 20.4121 41.2985 20.3063 41.2772C20.2006 41.2559 20.1466 41.2467 20.1476 41.2504C20.1496 41.2563 20.1523 41.2622 20.1551 41.2681C20.1581 41.2739 20.1615 41.2796 20.1655 41.2853C20.1693 41.291 20.1737 41.2965 20.1784 41.302C20.1831 41.3075 20.1883 41.3129 20.1937 41.3183C20.1993 41.3237 20.2051 41.329 20.2113 41.3342C20.2176 41.3395 20.2241 41.3447 20.231 41.3498C20.2379 41.3549 20.245 41.36 20.2524 41.365C20.2599 41.37 20.2676 41.375 20.2755 41.38C20.2836 41.3845 20.2916 41.3898 20.3001 41.3947C20.3086 41.3991 20.317 41.4044 20.3259 41.4091C20.3348 41.4134 20.3436 41.4187 20.3527 41.4234C20.3619 41.4277 20.371 41.4329 20.3804 41.4375C20.3898 41.4417 20.3991 41.4469 20.4087 41.4515C20.4183 41.4557 20.4278 41.4608 20.4375 41.4655C20.4472 41.4697 20.4569 41.4748 20.4665 41.4794C20.4763 41.4836 20.4859 41.4887 20.4956 41.4933C20.5054 41.4975 20.515 41.5025 20.5246 41.5071C20.5343 41.5113 20.5437 41.5164 20.5532 41.521C20.5627 41.5252 20.5721 41.5303 20.5813 41.535C20.5907 41.5391 20.5997 41.5444 20.6087 41.549C20.6178 41.5533 20.6265 41.5585 20.6352 41.5633C20.6439 41.5675 20.6522 41.5729 20.6605 41.5777C20.6689 41.5821 20.6768 41.5874 20.6846 41.5923C20.6924 41.5968 20.6998 41.6022 20.7071 41.6072C20.7143 41.6122 20.7213 41.6173 20.7279 41.6224C20.7346 41.6275 20.7409 41.6326 20.7468 41.6379C20.7528 41.6431 20.7584 41.6484 20.7637 41.6537C20.7689 41.659 20.7737 41.6644 20.7782 41.6698C20.7826 41.6752 20.7866 41.6808 20.7902 41.6864C20.7937 41.692 20.7968 41.6977 20.7995 41.7034C20.8022 41.7092 20.8044 41.7149 20.8059 41.7209C20.8076 41.7268 20.8089 41.7328 20.8092 41.739C20.8083 41.7445 20.8547 41.7617 20.9465 41.7899C21.0382 41.8182 21.2769 41.8736 21.4578 41.9138C21.6387 41.954 21.9604 42.0297 22.2256 42.072C22.4907 42.1144 22.8931 42.1879 23.2368 42.2233C23.5806 42.2587 24.0584 42.3095 24.4744 42.33C24.8903 42.3504 25.4362 42.36 25.9174 42.3584C26.3986 42.3568 27.0942 42.3039 27.6311 42.2474C28.1679 42.1908 28.9033 42.0769 29.4835 41.9563C30.0636 41.8357 30.8235 41.6381 31.4335 41.4469C32.0435 41.2557 32.8087 40.9579 33.4347 40.6923C34.0607 40.4267 34.8847 40.0035 35.4958 39.632C36.107 39.2606 36.8326 38.7753 37.4282 38.3296C38.0239 37.8839 38.7503 37.2561 39.2918 36.7126C39.8334 36.1691 40.4341 35.4936 40.9308 34.8872C41.4276 34.2808 41.9639 33.4695 42.3719 32.7874C42.7798 32.1054 43.2323 31.2525 43.5361 30.5133C43.8399 29.774 44.1469 28.9272 44.3746 28.1636C44.6025 27.4001 44.8082 26.4903 44.9184 25.7098C45.0286 24.9293 45.1085 24.0706 45.1404 23.2985C45.1722 22.5264 45.1427 21.6569 45.0636 20.9103C44.9848 20.1637 44.8624 19.3756 44.7179 18.668C44.5734 17.9603 44.3709 17.2042 44.139 16.5573C43.9071 15.9105 43.6561 15.2475 43.3818 14.6628C43.1076 14.078 42.8053 13.4947 42.5014 12.9791C42.1975 12.4636 41.8709 11.9609 41.5513 11.5197C41.2317 11.0785 40.9085 10.6503 40.5882 10.2861C40.2678 9.92201 39.9563 9.58245 39.6649 9.28088C39.3734 8.97928 39.0921 8.70142 38.828 8.47559C38.5639 8.24976 38.3336 8.03712 38.1208 7.87131C37.9081 7.70548 37.7275 7.56389 37.5816 7.44839C37.4358 7.33287 37.3189 7.24885 37.2419 7.19116C37.165 7.13348 37.1265 7.10193 37.1291 7.09804C37.1314 7.0941 37.1754 7.1189 37.2577 7.17025C37.34 7.22162 37.4639 7.30137 37.6155 7.4121C37.7672 7.52282 37.9537 7.66026 38.1724 7.8225C38.3911 7.98473 38.6465 8.19084 38.9057 8.42759C39.1649 8.6643 39.4632 8.92962 39.7609 9.23066C40.0587 9.5317 40.3787 9.87658 40.7053 10.2414C41.0319 10.6062 41.3648 11.0483 41.6903 11.4916C42.0159 11.935 42.3499 12.4549 42.6594 12.9739C42.9688 13.4928 43.2756 14.0962 43.5548 14.6856C43.834 15.275 44.1255 15.9788 44.3304 16.6419C44.5353 17.3051 44.7532 18.0544 44.9008 18.7686C45.0484 19.4829 45.1618 20.2958 45.2427 21.0495C45.3237 21.8032 45.331 22.7059 45.2998 23.4855C45.2687 24.2652 45.1687 25.147 45.0583 25.9352C44.9479 26.7234 44.7043 27.6596 44.475 28.4308C44.2456 29.2021 43.9147 30.136 43.5719 30.8662C43.229 31.5963 42.7941 32.4246 42.3826 33.1137C41.9712 33.8028 41.3818 34.618 40.8806 35.2307C40.3795 35.8434 39.7103 36.5941 39.1383 37.1161C38.5664 37.638 37.8658 38.2306 37.2647 38.6814C36.6637 39.1322 35.8414 39.6683 35.2077 40.014C34.574 40.3597 33.7888 40.7478 33.157 41.0172C32.5253 41.2866 31.7245 41.5587 31.1088 41.7533C30.4932 41.9479 29.6995 42.1146 29.1139 42.2384C28.5283 42.3622 27.7618 42.4403 27.2197 42.4998C26.6776 42.5593 25.954 42.5719 25.4679 42.5764C24.9818 42.5809 24.3111 42.5568 23.8921 42.5183C23.473 42.4797 22.9776 42.4284 22.6318 42.3789C22.2861 42.3294 21.8661 42.2587 21.5995 42.2068C21.333 42.1549 20.9925 42.0858 20.8104 42.0409C20.6283 41.9962 20.4885 41.962 20.394 41.9395C20.2995 41.9169 20.2503 41.9058 20.2494 41.907C20.2461 41.9118 20.306 41.9336 20.4261 41.9715C20.5463 42.0093 20.8392 42.1022 21.0783 42.1591C21.3173 42.2159 21.7257 42.3243 22.0774 42.3865C22.4291 42.4486 22.9489 42.5426 23.4059 42.5979C23.8629 42.6532 24.5999 42.7357 25.1551 42.7452C25.7102 42.7546 26.5371 42.7717 27.1768 42.7174C27.8165 42.6632 28.715 42.572 29.4236 42.4397C30.1321 42.3073 31.0754 42.0736 31.8354 41.8524C32.5954 41.6311 33.6487 41.1981 34.426 40.8424C35.2032 40.4868 36.2319 39.8907 36.9963 39.3968C37.7607 38.9028 38.721 38.1267 39.4421 37.4964C40.1631 36.8661 41.0962 35.8578 41.7064 35.0682C42.3165 34.2786 43.0457 33.197 43.548 32.2988C44.0502 31.4005 44.6561 30.1107 44.9773 29.1086C45.2984 28.1066 45.66 26.8206 45.8302 25.7684C46.0004 24.7161 46.1072 23.3878 46.1202 22.3173C46.1333 21.2468 45.9988 19.8501 45.8062 18.8018C45.6136 17.7534 45.2707 16.5064 44.9349 15.509C44.5993 14.5116 44.0224 13.3029 43.5165 12.4064C43.0105 11.5098 42.313 10.5021 41.7038 9.71102C41.0946 8.91993 40.2283 8.01433 39.5087 7.3813C38.7891 6.74828 37.9009 6.04485 37.1356 5.55069C36.3703 5.05656 35.4358 4.52342 34.6554 4.17274C33.875 3.82206 32.9871 3.4899 32.2347 3.23997C31.4823 2.99 30.5671 2.78801 29.8553 2.66736C29.1436 2.54673 28.3524 2.45595 27.7105 2.41277C27.0686 2.36959 26.359 2.37205 25.8026 2.38997C25.2462 2.40786 24.6338 2.46068 24.1757 2.52033C23.7176 2.57998 23.2611 2.65455 22.9077 2.71701C22.5543 2.77946 22.2092 2.86246 21.9674 2.91552C21.7255 2.96848 21.4951 3.0312 21.3708 3.06178C21.2465 3.09229 21.1816 3.10505 21.18 3.09885C21.1783 3.09268 21.2402 3.06817 21.3615 3.02658C21.4827 2.98497 21.713 2.91114 21.9525 2.84806C22.192 2.78503 22.539 2.6917 22.8907 2.62029C23.2424 2.54888 23.7027 2.46502 24.1594 2.39739C24.6162 2.32975 25.2409 2.26831 25.7967 2.24333C26.3525 2.21836 27.0772 2.20938 27.719 2.24634C28.3608 2.28331 29.1694 2.37004 29.8815 2.4853C30.5935 2.60057 31.5372 2.80384 32.2904 3.04916C33.0435 3.29448 33.9516 3.62921 34.7329 3.97592C35.5141 4.32266 36.4786 4.86639 37.2449 5.35718C38.0112 5.84796 38.928 6.56705 39.6487 7.19721C40.3694 7.8274 41.2699 8.7615 41.8803 9.55019C42.4906 10.3389 43.2107 11.3718 43.7178 12.2662C44.225 13.1607 44.7516 14.3446 45.1351 15.3227C45.5187 16.3007 45.857 17.6802 46.051 18.727C46.2449 19.7737 46.391 21.2192 46.3795 22.2882C46.368 23.3572 46.2646 24.7242 46.0962 25.775C45.9277 26.8258 45.5643 28.1517 45.2452 29.1526C44.926 30.1535 44.3086 31.4965 43.8087 32.394C43.3088 33.2915 42.5656 34.4113 41.9581 35.2005C41.3506 35.9898 40.4415 36.9357 39.7542 37.6008C39.0669 38.2659 37.9692 39.1163 37.2079 39.6113C36.4467 40.1064 35.3886 40.733 34.6146 41.0906C33.8406 41.4481 32.8555 41.8354 32.1101 42.0961C31.3648 42.3568 30.2713 42.6091 29.5658 42.7452C28.8604 42.8813 27.9342 42.9897 27.2973 43.0487C26.6604 43.1076 25.8026 43.1066 25.2499 43.1029C24.6972 43.0991 23.9258 43.0311 23.4707 42.9826C23.0155 42.9341 22.4776 42.8504 22.1273 42.7961C21.777 42.7418 21.3488 42.6438 21.1106 42.596C20.8724 42.5481 20.5575 42.4659 20.4376 42.438C20.3176 42.4102 20.2575 42.3989 20.2611 42.4054C20.2682 42.4182 20.3466 42.4515 20.492 42.5038C20.6373 42.5562 20.9905 42.6597 21.2694 42.7347C21.5482 42.81 22.0333 42.9243 22.4387 43.007C22.8441 43.0897 23.5978 43.2179 24.1249 43.2675C24.6519 43.3171 25.5231 43.3932 26.1589 43.3865C26.7947 43.3799 27.7673 43.3483 28.4959 43.2661C29.2245 43.1839 30.4168 43.0033 31.2107 42.7909C32.0045 42.5784 33.0946 42.2327 33.9382 41.9156C34.7817 41.5983 36.1274 40.9312 36.9551 40.4202C37.7827 39.9088 38.9509 39.0883 39.7436 38.4227C40.5363 37.7571 41.7002 36.6046 42.3827 35.7557C43.0653 34.9069 43.9442 33.6307 44.5158 32.6521C45.0875 31.6736 45.7803 30.069 46.1574 28.9631C46.5344 27.8572 46.9515 26.1303 47.1047 24.9472C47.2579 23.764 47.3508 21.9821 47.2693 20.7777C47.1878 19.5734 46.9341 17.8147 46.6232 16.6447C46.3121 15.4749 45.7228 13.8144 45.2 12.7306C44.6773 11.6469 43.7839 10.1489 43.0761 9.19744C42.3683 8.24585 41.2176 6.9617 40.36 6.18209C39.5024 5.40248 38.1542 4.36639 37.1905 3.79001C36.2268 3.21363 34.8614 2.54149 33.8623 2.13472C32.8632 1.72799 31.3106 1.28214 30.3018 1.0968C29.293 0.911446 27.8945 0.745756 26.9304 0.717648C25.9664 0.68954 24.6344 0.762634 23.7463 0.870603C22.8582 0.978574 21.6335 1.23561 20.8468 1.45212C20.06 1.66862 18.9611 2.04512 18.2944 2.33812C17.6276 2.63106 16.7848 3.04022 16.2344 3.34833C15.6839 3.65649 14.9781 4.10167 14.5476 4.40031C14.117 4.69899 13.5345 5.1278 13.2236 5.39126C12.9127 5.65469 12.5502 5.9609 12.3447 6.15288C12.1391 6.34479 11.9816 6.49201 11.8755 6.59118C11.7694 6.69041 11.6289 6.83767 11.6289 6.83767L12.6567 5.86784L13.6472 5.05158L14.6828 4.29524L15.871 3.53743L16.9958 2.9246L18.154 2.37876L19.3421 1.90174L20.6846 1.46953L21.9263 1.15416L23.1852 0.912819L24.5916 0.742536L25.8743 0.672457L27.1599 0.679608L28.5822 0.780627L29.8587 0.962015L31.1232 1.22009L32.3711 1.55384L33.5979 1.96161L34.9263 2.50957L36.0897 3.07838L37.2175 3.71621L38.4213 4.5039L39.4544 5.28808L40.4396 6.13245L41.374 7.0339L42.3396 8.10211L43.1481 9.12L43.8969 10.1837L44.6485 11.4157L45.2539 12.5701L45.7926 13.7586L46.3059 15.1144L46.6872 16.3663L46.9963 17.6395L47.2316 18.9301L47.3925 20.3835L47.457 21.6979L47.4448 23.0151L47.3329 24.4832L47.147 25.7905L46.8848 27.0852L46.5474 28.3627L46.0776 29.7643L45.5769 30.9865L45.0058 32.1763L44.3662 33.3293L43.567 34.5666L42.7822 35.6218L41.9377 36.6277L40.9261 37.6879L39.9586 38.5707L38.9424 39.3948L37.8808 40.1577L36.6402 40.9247L35.4889 41.5402L34.3041 42.0875L32.9408 42.6077L31.6934 42.9932L30.425 43.3048L28.9819 43.5583L27.6804 43.6971L26.3718 43.758L25.0604 43.7404L23.5882 43.6143C23.5882 43.6143 27.3021 44.1262 28.6438 43.9705C29.5711 43.8629 31.0978 43.5573 32.1747 43.267C33.2517 42.9765 35.1846 42.2164 36.3038 41.5975C37.4229 40.9785 39.1365 39.8496 40.226 38.9355C41.3155 38.0214 42.9279 36.2676 43.8372 35.0168C44.7466 33.766 46.1056 31.2916 46.6963 29.5614C47.287 27.8315 47.9327 24.8479 47.9935 22.8446C48.0544 20.8415 47.6831 17.5428 47.0571 15.5683C46.4312 13.5938 45.0184 10.6177 43.8071 8.98828C42.5958 7.35883 40.2801 4.97808 38.5999 3.8551C36.9197 2.73225 34.2104 1.40741 32.5298 0.917057C30.8493 0.426739 28.3474 0.0432447 27.0722 0.00699161C25.797 -0.0292582 24.2946 0.0865979 24.1875 0.0998706C24.0805 0.113257 23.416 0.179683 22.6834 0.294655C21.9508 0.40975 20.5099 0.744416 19.488 1.05767C18.4662 1.37094 16.7451 2.12217 15.6145 2.72058C14.4841 3.31899 12.6799 4.59206 11.6713 5.4827C10.6627 6.37334 9.24602 7.9402 8.38458 9.06227C7.52314 10.1843 6.39061 12.283 5.82622 13.5849C5.26186 14.8868 4.57641 17.1835 4.35643 18.5218C4.13641 19.86 3.9699 21.9642 4.00458 23.1893C4.03927 24.4143 4.28205 26.4084 4.53288 27.5387C4.78369 28.669 5.36042 30.5219 5.78097 31.4998C6.20149 32.4778 6.95332 33.9374 7.44571 34.7463C7.93809 35.5553 8.84639 36.7878 9.35836 37.4092C9.87033 38.0307 10.6866 38.8738 11.1388 39.3263C13.0097 40.6576 12.5504 40.1013 14.2698 40.7684C16.767 41.7637 20.0667 40.688 20.6327 39.5731C21.199 38.4582 20.4655 35.449 17.4531 32.4066C16.9974 31.9822 16.8019 31.8225 16.2765 31.2304C15.7511 30.6383 15.6208 30.5027 15.1015 29.7172C14.5821 28.9319 14.4215 28.6438 13.9605 27.6761C13.4995 26.7083 13.4432 26.4919 13.1417 25.3482C12.8401 24.2046 12.8054 23.8974 12.7176 22.6276C12.6298 21.3578 12.6003 21.1355 12.8474 19.6865C13.0944 18.2375 13.0988 17.8442 13.7355 16.3926C14.3723 14.941 14.5508 14.4737 15.5392 13.1913C16.5276 11.9089 16.9091 11.5212 18.1374 10.5374C19.3656 9.55352 19.6882 9.32373 21.1183 8.73169C22.5484 8.13966 23.0062 7.92814 24.3202 7.72618C25.6342 7.52422 26.0966 7.43646 27.053 7.47699C28.0093 7.51753 28.362 7.53598 28.4394 7.54592C28.5168 7.55587 28.7923 7.55504 29.5083 7.67902C30.2244 7.80301 30.6637 7.83617 31.7338 8.19515C32.8038 8.55411 33.3942 8.74979 34.624 9.4628C35.8538 10.1758 36.4796 10.6186 37.6178 11.7233C38.756 12.8281 39.3338 13.4861 40.1848 14.9915C41.0357 16.497 41.5141 17.4717 41.9237 19.2227C42.3334 20.9737 42.5218 22.1678 42.4108 23.955C42.2997 25.7421 42.0508 27.0533 41.5294 28.6779C41.008 30.3024 40.4259 31.4561 39.4903 32.8023C38.5546 34.1484 37.6501 35.1618 36.5014 36.1722C35.3527 37.1826 34.2495 37.8877 33.0278 38.526C33.1082 38.5146 33.2174 38.4877 33.3538 38.4464C33.4902 38.4051 33.6332 38.3548 33.8187 38.2763C34.0041 38.1979 34.2008 38.1209 34.4288 38.0027C34.6567 37.8844 34.8971 37.7711 35.1611 37.6111C35.4251 37.4511 35.6984 37.2935 35.9918 37.0903C36.2854 36.8873 36.5805 36.6791 36.8971 36.4322C37.2137 36.1854 37.5193 35.9222 37.8526 35.6317C38.1859 35.3411 38.4766 35.0364 38.8041 34.6863C39.1316 34.3361 39.4343 34.0017 39.7449 33.5935C40.0555 33.1852 40.348 32.7759 40.6533 32.3276C40.9587 31.8793 41.1936 31.4355 41.4643 30.9358C41.7351 30.4361 41.9417 29.9608 42.1688 29.4158C42.3959 28.8709 42.5655 28.3683 42.7413 27.7857C42.917 27.2032 43.0435 26.6795 43.162 26.0684C43.2806 25.4572 43.3553 24.9191 43.4127 24.2891C43.4702 23.6591 43.4858 23.1151 43.4803 22.4765C43.4748 21.8379 43.4277 21.2984 43.3594 20.6615C43.291 20.0246 43.1814 19.5007 43.0521 18.8755C42.9227 18.2502 42.7543 17.7528 42.5675 17.1487C42.3806 16.5445 42.2066 16.1306 41.9403 15.5686C41.674 15.0065 41.467 14.5657 41.1558 14.0435C40.8447 13.5213 40.6055 13.1248 40.257 12.6489C39.9084 12.1731 39.6501 11.823 39.2723 11.3989C38.8945 10.9747 38.6313 10.6695 38.2333 10.3011C37.8353 9.93262 37.4985 9.63749 37.1055 9.3073C36.7126 8.97713 36.4368 8.79582 36.0409 8.52428C35.645 8.25275 35.4087 8.09219 35.0203 7.87871C34.6319 7.66523 34.3413 7.50552 33.9793 7.3288C33.6173 7.15206 33.3537 7.03847 33.0242 6.89667C32.6948 6.75483 32.4678 6.67885 32.1769 6.5694C31.8859 6.45995 31.7044 6.41114 31.458 6.33076C31.2116 6.25031 31.083 6.21643 30.8869 6.16107L30.8869 6.1609" fill="url(#paint0_linear)"/>
</g>
<defs>
<filter id="filter0_d" x="0" y="0" width="52" height="52" filterUnits="userSpaceOnUse" color-interpolation-filters="sRGB">
<feFlood flood-opacity="0" result="BackgroundImageFix"/>
<feColorMatrix in="SourceAlpha" type="matrix" values="0 0 0 0 0 0 0 0 0 0 0 0 0 0 0 0 0 0 127 0"/>
<feOffset dy="4"/>
<feGaussianBlur stdDeviation="2"/>
<feColorMatrix type="matrix" values="0 0 0 0 0 0 0 0 0 0 0 0 0 0 0 0 0 0 0.5 0"/>
<feBlend mode="normal" in2="BackgroundImageFix" result="effect1_dropShadow"/>
<feBlend mode="normal" in="SourceGraphic" in2="effect1_dropShadow" result="shape"/>
</filter>
<linearGradient id="paint0_linear" x1="26" y1="0" x2="26" y2="44" gradientUnits="userSpaceOnUse">
<stop stop-color="#EC4962"/>
<stop offset="0.97247" stop-color="#313B90"/>
</linearGradient>
</defs>
</svg>
